<svg width="60" height="60" viewBox="0 0 60 60" fill="none" xmlns="http://www.w3.org/2000/svg">
<path d="M37.0093 36.9911C35.3365 34.9911 32.8002 31.9638 30.6002 31.0274C29.9729 30.7638 29.382 30.6638 28.8456 30.7456C27.7911 30.9001 26.982 31.5911 26.3093 32.2365C22.2275 36.1274 19.5002 39.682 17.7275 43.4456C16.682 45.6729 14.5911 51.1911 17.8184 54.2911C18.7002 55.1365 19.9365 55.882 21.5547 55.882C22.882 55.882 24.4547 55.382 26.3093 54.0274C29.4275 51.7365 29.7729 51.9547 33.1184 53.9729C34.3456 54.7092 36.7365 55.882 38.982 55.4274C41.6093 54.8911 43.5365 52.5092 43.7638 49.4911C44.1275 44.8365 40.482 40.8729 38.0729 38.2456C37.8002 37.9365 37.4365 37.5001 37.0093 36.9911ZM42.0184 49.3456C41.8729 51.2001 40.7729 53.2547 38.6365 53.6911C37.4275 53.9365 35.7456 53.4911 34.0275 52.4547C30.3002 50.2092 29.1638 49.7365 25.2638 52.6001C21.882 55.082 20.0911 54.0274 19.0365 53.0092C16.5638 50.6365 18.6275 45.6547 19.3184 44.1911C20.9911 40.6274 23.6002 37.2365 27.5184 33.5001C28.0184 33.0274 28.5456 32.5547 29.0911 32.482C29.1274 32.4729 29.1729 32.4729 29.2093 32.4729C29.4002 32.4729 29.6365 32.5274 29.9002 32.6365C31.7184 33.4001 34.1729 36.3456 35.6456 38.1092C36.0911 38.6456 36.4729 39.1001 36.7638 39.4183C38.9911 41.8274 42.3184 45.4547 42.0184 49.3456Z" fill="white"/>
<path d="M22.891 23.0092C24.5637 25.0092 27.1 28.0364 29.3 28.9728C29.7819 29.1819 30.2455 29.2819 30.6819 29.2819C30.8091 29.2819 30.9364 29.2728 31.0546 29.2546C32.1091 29.1001 32.9182 28.4092 33.591 27.7637C37.6728 23.8728 40.4 20.3183 42.1728 16.5546C43.2182 14.3274 45.3091 8.80917 42.0819 5.70917C40.4728 4.16371 37.7 2.96371 33.591 5.97281C30.4728 8.25462 30.1273 8.04553 26.7819 6.02735C25.5546 5.29099 23.1728 4.11826 20.9182 4.57281C18.291 5.10917 16.3728 7.49099 16.1364 10.5092C15.7819 15.1637 19.4182 19.1274 21.8273 21.7546C22.1 22.0728 22.4637 22.5092 22.891 23.0092ZM17.8819 10.6546C18.0273 8.80008 19.1273 6.74553 21.2637 6.30917C22.4728 6.06371 24.1546 6.50917 25.8728 7.54553C29.6 9.79099 30.7364 10.2637 34.6364 7.40008C38.0182 4.91826 39.8091 5.97281 40.8637 6.99099C43.3364 9.36371 41.2728 14.3455 40.5819 15.8092C38.9091 19.3728 36.3 22.7637 32.3728 26.5001C31.8728 26.9728 31.3455 27.4364 30.8 27.5183C30.5819 27.5546 30.3091 27.491 29.991 27.3546C28.1819 26.591 25.7182 23.6455 24.2455 21.8819C23.8 21.3455 23.4182 20.891 23.1182 20.5728C20.9091 18.1728 17.5819 14.5455 17.8819 10.6546Z" fill="white"/>
<path d="M57.1729 33.3001C54.882 30.1819 55.1002 29.8364 57.1093 26.491C58.4002 24.3455 58.6911 21.8364 57.8911 19.7728C57.1911 17.9637 55.7002 16.6364 53.6911 16.0455C50.4002 15.0728 47.7184 17.0728 45.3456 18.8455C44.9547 19.1364 44.5638 19.4273 44.182 19.7001C41.0456 21.9001 38.0729 24.3819 35.3547 27.0819C34.7093 27.7273 34.2638 28.3364 34.0002 28.9637C32.982 31.3637 34.8547 33.0455 36.6638 34.6637C36.9638 34.9273 37.2638 35.2092 37.5638 35.491C40.6183 38.3728 43.5729 40.4728 46.6002 41.891C47.9365 42.5183 50.4638 43.5273 52.9456 43.5273C54.5911 43.5273 56.2093 43.0819 57.4456 41.8001C58.982 40.1819 60.182 37.4001 57.1729 33.3001ZM56.1638 40.5728C53.7911 43.0455 48.8093 40.9819 47.3456 40.291C44.4911 38.9455 41.682 36.9546 38.7729 34.2001C38.4638 33.9092 38.1456 33.6183 37.8365 33.3455C35.9274 31.6364 35.1456 30.7637 35.6183 29.6364C35.7911 29.2364 36.1183 28.791 36.5911 28.3183C39.2456 25.691 42.1365 23.2728 45.1911 21.1273C45.5911 20.8455 45.9911 20.5455 46.4002 20.2455C48.5365 18.6455 50.7547 17.0001 53.2002 17.7273C54.6911 18.1728 55.7456 19.091 56.2547 20.4092C56.8638 21.9637 56.6184 23.9001 55.6002 25.5819C53.3547 29.3092 52.882 30.4455 55.7456 34.3455C58.2365 37.7183 57.182 39.5183 56.1638 40.5728Z" fill="white"/>
<path d="M19.2455 37.5002C21.7637 35.4729 24.6092 33.182 25.8183 30.3184C26.0819 29.6911 26.1819 29.1002 26.1001 28.5638C25.9455 27.5093 25.2546 26.7002 24.6092 26.0366C20.7274 21.9547 17.1637 19.2275 13.4001 17.4547C11.1728 16.4093 5.65463 14.3184 2.55463 17.5457C1.00917 19.1547 -0.190826 21.9275 2.81826 26.0366C5.10008 29.1547 4.89099 29.5002 2.8819 32.8457C2.14554 34.0729 0.97281 36.4638 1.42736 38.7093C1.96372 41.3366 4.34554 43.2638 7.36372 43.4911C7.5819 43.5093 7.79099 43.5184 8.00008 43.5184C12.0364 43.5184 15.5183 40.6002 17.8637 38.6275C18.3001 38.2638 18.7637 37.882 19.2455 37.5002ZM7.50008 41.7366C5.64554 41.5911 3.5819 40.4911 3.15463 38.3547C2.90917 37.1366 3.35463 35.4638 4.39099 33.7457C6.63645 30.0184 7.10917 28.882 4.24554 24.982C1.76372 21.6002 2.81826 19.8093 3.83645 18.7547C4.6819 17.8729 5.84554 17.5729 7.07281 17.5729C9.30008 17.5729 11.7092 18.5911 12.6637 19.0366C16.2274 20.7093 19.6183 23.3184 23.3546 27.2457C23.8274 27.7457 24.291 28.2729 24.3728 28.8184C24.4001 29.0275 24.3546 29.3093 24.2092 29.6275C23.1728 32.082 20.5092 34.2275 18.1546 36.1184C17.6637 36.5184 17.1819 36.9002 16.7455 37.2729C13.8819 39.6729 10.791 41.982 7.50008 41.7366Z" fill="white"/>
<path d="M33.2183 43.1274C32.9729 43.391 33.8911 44.591 34.6002 46.2456C35.3274 47.891 35.5729 49.3819 35.9365 49.3819C36.2729 49.4092 36.5911 47.6728 35.7547 45.7456C34.9183 43.8092 33.4183 42.8637 33.2183 43.1274Z" fill="white"/>
<path d="M10.7455 21.182C9.31824 20.8911 7.97278 21.0638 7.09096 21.382C6.20006 21.7002 5.7546 22.1002 5.81824 22.2456C5.96369 22.582 8.00915 21.8729 10.491 22.4183C12.9819 22.8911 14.6001 24.3456 14.8546 24.0911C14.9728 23.982 14.7182 23.4456 14.0273 22.8002C13.3455 22.1547 12.1728 21.4729 10.7455 21.182Z" fill="white"/>
<path d="M52.0183 21.0365C51.4183 20.9092 50.5546 20.9002 49.6455 21.1456C48.7364 21.4002 48.0001 21.8456 47.5546 22.2638C47.1001 22.682 46.9364 23.0456 47.0455 23.1729C47.2819 23.4456 48.4455 22.7638 49.9819 22.3638C51.5092 21.9274 52.8546 21.9092 52.9273 21.5547C52.9546 21.3911 52.6183 21.1638 52.0183 21.0365Z" fill="white"/>
<path d="M35.9091 14.591C36.0455 14.691 36.3546 14.5637 36.6546 14.1546C36.9637 13.7637 37.2182 13.0819 37.2091 12.3092C37.2001 11.5364 36.9182 10.8728 36.591 10.4819C36.2728 10.091 35.9546 9.97281 35.8273 10.0728C35.5637 10.3092 35.9546 11.2001 35.9455 12.3274C36.0001 13.4546 35.6364 14.3637 35.9091 14.591Z" fill="white"/>
</svg>
