<svg width="60" height="60" viewBox="0 0 60 60" fill="none" xmlns="http://www.w3.org/2000/svg">
<path d="M58.0635 16.8545C56.9544 14.1727 55.3999 11.5181 53.6726 9.38174C53.2908 8.90901 52.8908 8.3272 52.4726 7.69992C51.0272 5.57265 49.3817 3.16356 46.8726 2.74538C46.0363 2.60901 45.1635 2.65447 44.309 2.69083C43.9363 2.70901 43.5635 2.7272 43.209 2.7272C42.2635 2.7272 40.309 2.69083 37.809 2.65447C26.0363 2.46356 14.3817 2.3272 12.5817 2.90901C12.1363 3.05447 11.7272 3.24538 11.3817 3.47265C9.9999 4.37265 9.01808 5.76356 8.20899 6.99992C6.8999 8.98174 5.66353 11.0363 4.51808 13.1272C4.2999 13.5272 4.02717 13.9636 3.74535 14.4363C2.76353 16.0454 1.64535 17.8727 1.50899 19.5545C1.37262 21.209 2.66353 22.7272 3.6999 23.9363C3.97262 24.2545 4.22717 24.5454 4.42717 24.8181C5.72717 26.5726 7.01808 28.3363 8.30899 30.109L9.44535 31.6636C15.7726 40.3363 22.309 49.309 29.8544 57.2363C30.0181 57.409 30.2453 57.509 30.4817 57.509H30.509C30.7544 57.4999 30.9908 57.3908 31.1453 57.1999C36.5726 50.8181 41.7181 43.9999 46.6817 37.3999C48.9817 34.3454 51.3544 31.1908 53.7272 28.1272C53.9635 27.8181 54.2181 27.4999 54.4817 27.1726C56.6544 24.4363 59.6454 20.6908 58.0635 16.8545ZM51.0272 8.68174C51.4726 9.33629 51.8908 9.95447 52.3181 10.4727C53.9454 12.4817 55.409 14.9817 56.4544 17.509C56.6999 18.109 56.7817 18.7181 56.7453 19.3363L42.0635 19.2817C43.1635 16.9636 44.1635 14.7272 45.1363 12.5636C46.1635 10.2727 47.2363 7.89083 48.4181 5.4272C49.3908 6.28174 50.2454 7.5272 51.0272 8.68174ZM39.5999 21.0181C38.1272 26.0908 36.4544 32.1181 34.8272 37.9817C33.3544 43.3181 31.8363 48.7908 30.4635 53.5454C29.3272 49.5999 27.6181 43.2999 25.8363 36.6999C24.309 31.0454 22.7272 25.2363 21.5272 20.9454L39.5999 21.0181ZM22.1999 19.2181C23.709 17.0817 25.1454 14.8636 26.5272 12.6999C27.9999 10.3999 29.5181 8.0272 31.1363 5.78174C32.4908 7.9272 33.8999 10.2363 35.2726 12.4817C36.6635 14.7636 38.0999 17.0999 39.4817 19.2817L22.1999 19.2181ZM43.209 4.48174C43.5908 4.48174 43.9908 4.46356 44.3999 4.43629C45.1544 4.39992 45.9363 4.35447 46.5817 4.46356C46.6908 4.48174 46.7999 4.5272 46.909 4.56356C45.6999 7.09083 44.609 9.51811 43.5635 11.8636C42.6635 13.8545 41.7454 15.909 40.7544 18.0272C39.4454 15.9545 38.0908 13.7363 36.7726 11.5726C35.2817 9.1272 33.7453 6.6181 32.2817 4.3181C34.3363 4.34538 36.2454 4.38174 37.7999 4.40901C40.2908 4.44538 42.2635 4.48174 43.209 4.48174ZM30.0817 4.29083C28.309 6.70901 26.6544 9.27265 25.0635 11.7636C23.6272 14.009 22.1544 16.309 20.5908 18.4999L14.2363 4.40901C15.8363 4.28174 18.809 4.23629 22.2272 4.23629C24.7272 4.23629 27.4635 4.25447 30.0817 4.29083ZM5.22717 15.3363C5.52717 14.8454 5.80899 14.3817 6.04535 13.9636C7.17262 11.9181 8.3908 9.89992 9.66353 7.95447C10.409 6.8181 11.2363 5.65447 12.3363 4.93629C12.3908 4.89992 12.4544 4.87265 12.5181 4.83629L18.9999 19.209L3.32717 19.1545C3.62717 17.9636 4.4999 16.5272 5.22717 15.3363ZM9.6999 29.0817C8.40899 27.309 7.11808 25.5363 5.80899 23.7817C5.5908 23.4817 5.30899 23.1545 5.00899 22.809C4.50899 22.2181 3.93626 21.5454 3.57262 20.8999L19.6999 20.9545C20.9181 25.2726 22.5544 31.309 24.1454 37.1636C25.8272 43.3545 27.4363 49.2999 28.5635 53.2817C22.1544 46.1363 16.409 38.2727 10.8363 30.6363L9.6999 29.0817ZM53.109 26.0908C52.8363 26.4272 52.5817 26.7545 52.3363 27.0636C49.9635 30.1363 47.5817 33.2999 45.2726 36.3545C41.1454 41.8363 36.8908 47.4545 32.4635 52.8545C33.7453 48.3727 35.1363 43.3636 36.4908 38.4545C38.1635 32.409 39.8908 26.1817 41.3999 21.0272L56.3635 21.0817C55.6999 22.8454 54.3181 24.5817 53.109 26.0908Z" fill="white"/>
<path d="M7.77262 23.1545C7.4999 23.3636 9.07262 25.8545 11.409 28.6182C13.7454 31.3909 15.9363 33.3545 16.1817 33.1272C16.4363 32.8909 14.6635 30.5636 12.3544 27.8182C10.0454 25.0818 8.04535 22.9454 7.77262 23.1545Z" fill="white"/>
<path d="M48.2999 11.2454C48.109 11.5454 49.1363 12.5181 50.1817 13.8363C51.2454 15.1454 51.9817 16.3545 52.309 16.2272C52.6272 16.1272 52.3545 14.5454 51.1454 13.0545C49.9545 11.5636 48.4726 10.9545 48.2999 11.2454Z" fill="white"/>
<path d="M46.3802 31.4884C47.3112 29.8228 47.8244 28.3375 47.5263 28.1709C47.2282 28.0043 46.2319 29.2195 45.3008 30.8851C44.3698 32.5507 43.8566 34.0359 44.1547 34.2026C44.4527 34.3692 45.4491 33.154 46.3802 31.4884Z" fill="white"/>
</svg>
