<svg width="60" height="60" viewBox="0 0 60 60" fill="none" xmlns="http://www.w3.org/2000/svg">
<path d="M57.6545 22.091C57.3908 21.9365 57.0545 21.9728 56.8454 22.191C54.609 24.391 51.0272 24.6001 48.5181 24.5728L47.7726 24.5637C43.2181 24.491 37.5726 24.391 34.509 28.791C33.0817 30.8365 32.8908 32.4819 33.1817 33.7456C31.7545 34.391 30.4454 35.191 29.3817 36.2546C29.5545 33.991 29.4999 31.7728 29.009 29.7092C29.5635 29.3728 30.0545 28.9819 30.4726 28.5183C31.7181 27.1456 32.3635 25.2456 32.3817 22.891C32.4181 19.0456 29.8181 15.1001 25.909 13.0819C23.9545 12.0728 21.8635 11.3728 19.8363 10.691C18.8181 10.3456 17.7635 9.99101 16.7454 9.60919C11.2363 7.5001 6.709 4.93646 3.29081 1.98192C3.23627 1.93646 3.18172 1.89101 3.12718 1.84555C2.84536 1.60919 2.42718 1.63646 2.19081 1.91828C1.94536 2.19101 1.97263 2.60919 2.25445 2.85464L2.41809 2.99101C4.709 5.03646 6.17263 8.18192 7.009 12.8819C7.12718 13.5456 7.23627 14.2092 7.33627 14.8728C7.79081 17.7001 8.25445 20.6274 9.67263 23.191C11.7908 27.0092 17.1454 30.2183 22.4181 30.8274C22.9908 30.891 23.5545 30.9274 24.0908 30.9274C25.4454 30.9274 26.6817 30.7183 27.7545 30.3183C28.2908 32.8183 28.1635 35.5819 27.7999 38.3819C27.7817 38.4092 27.7726 38.4365 27.7545 38.4637C27.6726 38.6274 27.6635 38.8183 27.7181 38.9819C27.5908 39.8637 27.4454 40.7546 27.2999 41.6274C25.7726 41.6001 24.2726 42.0728 23.1454 43.0365C22.2544 43.791 21.7181 45.0274 21.4181 45.9456C20.0545 45.3274 18.209 45.191 16.9181 46.0365C15.9454 46.6728 15.2181 47.8819 15.0363 49.1819C14.9908 49.4637 14.9817 49.7456 14.9908 50.0092C14.409 49.8274 13.7635 49.7637 13.109 49.8365C11.6635 50.0001 10.4363 50.7819 9.83627 51.9365C9.22718 53.091 9.28172 54.5456 9.96354 55.8274C10.6545 57.1092 11.8363 57.9456 13.1363 58.0819C13.8454 58.1546 29.6908 58.3546 36.8817 58.3546C38.6454 58.3546 39.8908 58.3456 40.2545 58.3183L40.5908 58.291C42.2454 58.1637 44.5181 58.0001 45.509 56.191C45.9999 55.2819 46.0908 54.2819 45.7635 53.3092C45.3817 52.1637 44.4454 51.1728 43.2726 50.6365C43.1999 50.6092 42.1999 50.1637 41.1726 50.0728C41.5181 48.9728 41.3545 47.7274 40.6545 46.591C39.5272 44.7456 37.4181 43.791 35.5272 44.2637C35.2454 44.3365 34.0272 44.7728 33.1272 45.4637C32.5545 44.0001 31.3635 42.8183 29.7545 42.1637C29.3817 42.0092 28.9999 41.9092 28.609 41.8183C28.7817 40.8274 28.9363 39.8365 29.0726 38.8456C30.0635 37.091 31.7181 35.9001 33.6454 35.0274C33.7272 35.1637 33.809 35.3001 33.8999 35.4274C35.4817 37.6546 38.9272 38.7456 42.0726 38.7456C43.1545 38.7456 44.1999 38.6183 45.1272 38.3546C51.3635 36.6001 56.0545 29.3274 57.9363 22.9001C58.0363 22.5637 57.909 22.2456 57.6545 22.091ZM22.5726 29.491C17.6999 28.9274 12.7635 26.0092 10.8454 22.5365C9.53627 20.1819 9.109 17.5001 8.65445 14.6546C8.54536 13.9819 8.43627 13.3092 8.31809 12.6365C7.96354 10.6637 7.39081 8.15464 6.19991 5.83646C9.07263 7.71828 12.4363 9.39101 16.2635 10.8456C17.2999 11.2365 18.3726 11.6001 19.3999 11.9456C21.3726 12.6092 23.4181 13.291 25.2817 14.2546C28.6999 16.0183 31.0635 19.5637 31.0272 22.8637C31.009 24.8819 30.4817 26.4728 29.4635 27.6001C29.209 27.8819 28.9181 28.1183 28.5999 28.3365C28.2544 27.3365 27.7908 26.3819 27.1726 25.491C25.6545 23.291 23.4635 21.8183 21.3454 20.391C20.909 20.1001 20.4726 19.8092 20.0454 19.5092C18.0635 18.1365 15.3635 15.9546 14.6817 12.9183C14.5999 12.5546 14.2454 12.3274 13.8817 12.4092C13.5181 12.491 13.2908 12.8456 13.3726 13.2092C14.1545 16.7001 17.1181 19.1001 19.2726 20.6001C19.709 20.9001 20.1454 21.2001 20.5908 21.5001C22.609 22.8546 24.6908 24.2546 26.0635 26.2456C26.6545 27.1001 27.0817 28.0183 27.3999 28.991C26.0908 29.5365 24.4454 29.7092 22.5726 29.491ZM32.1635 47.0546C32.1999 47.4274 32.509 47.7001 32.8908 47.6728C33.2545 47.6365 33.5272 47.3274 33.4908 46.9546C33.5817 46.5728 35.0726 45.7092 35.8545 45.5183C37.409 45.1274 38.8363 46.1365 39.509 47.2456C40.2181 48.4001 40.1635 49.6365 39.3545 50.5546C39.109 50.8365 39.1363 51.2547 39.4181 51.5001C39.6999 51.7456 40.1181 51.7183 40.3635 51.4365C40.5454 51.2274 41.7454 51.3728 42.709 51.8092C43.5545 52.191 44.2181 52.891 44.4817 53.6819C44.6272 54.1092 44.7181 54.7819 44.3272 55.5001C43.6908 56.6728 41.909 56.8001 40.4817 56.9092L40.1454 56.9365C38.3454 57.0819 14.3272 56.8001 13.2635 56.7092C12.409 56.6183 11.6181 56.0456 11.1363 55.1546C10.6635 54.2637 10.609 53.2819 11.009 52.5274C11.409 51.7637 12.2454 51.2456 13.2454 51.1365C14.2454 51.0274 15.1726 51.3456 15.7272 52.0001C15.7272 52.0001 15.7272 52.0092 15.7363 52.0092C15.9726 52.291 16.3999 52.3274 16.6817 52.0819C16.9635 51.8456 16.9999 51.4183 16.7545 51.1365C16.7545 51.1365 16.7545 51.1365 16.7454 51.1274C16.3817 50.7001 16.2454 50.0637 16.3454 49.3365C16.4817 48.4183 16.9817 47.5456 17.6363 47.1183C18.6726 46.4365 20.4635 46.7456 21.4181 47.4546C21.5999 47.591 21.8363 47.6183 22.0454 47.5456C22.2545 47.4637 22.4181 47.291 22.4635 47.0728C22.709 46.0183 23.2363 44.6637 23.9908 44.0274C25.3635 42.8637 27.4272 42.6001 29.2545 43.3456C30.9272 44.0365 32.009 45.4183 32.1635 47.0546ZM44.7817 37.0274C41.6817 37.9001 36.7363 37.0365 35.009 34.6092C34.9817 34.5637 34.9545 34.5183 34.9272 34.4728C36.609 33.8456 38.4181 33.391 40.1363 32.9546L40.3635 32.9001C41.6454 32.5728 42.7545 32.4183 43.7454 32.2819C46.2454 31.9365 48.2181 31.6546 50.609 29.0819C50.8635 28.8092 50.8454 28.391 50.5726 28.1365C50.2999 27.8819 49.8817 27.9001 49.6272 28.1728C47.5545 30.4001 45.9635 30.6183 43.5545 30.9546C42.5363 31.1001 41.3817 31.2546 40.0363 31.6001L39.809 31.6546C38.0454 32.1001 36.1908 32.5637 34.4454 33.2183C34.2817 32.1365 34.6545 30.9092 35.5999 29.5546C37.8817 26.2819 41.9181 25.8819 45.8272 25.8819C46.4726 25.8819 47.109 25.891 47.7363 25.9001L48.4908 25.9092C50.6545 25.9365 53.5908 25.791 55.9999 24.4637C53.9363 29.9637 49.909 35.5819 44.7817 37.0274Z" fill="white"/>
<path d="M19.8364 53.4637C19.3636 53.3183 18.9909 53.091 18.8545 53.2092C18.7091 53.3092 18.9818 53.8546 19.6364 54.0728C20.2909 54.291 20.8364 54.0092 20.7818 53.8455C20.7364 53.6728 20.3 53.6274 19.8364 53.4637Z" fill="white"/>
<path d="M24.2454 47.5911C23.8636 48.1911 24.1364 48.782 24.3 48.7184C24.4727 48.6729 24.5364 48.2911 24.7818 47.9275C25 47.5547 25.3182 47.3275 25.2818 47.1457C25.2727 46.9638 24.6182 46.982 24.2454 47.5911Z" fill="white"/>
<path d="M32.3908 50.6002C32.5272 50.4911 32.4272 50.1184 32.1545 49.7729C31.8817 49.4184 31.5545 49.2275 31.409 49.3275C31.2727 49.4366 31.3727 49.8093 31.6454 50.1548C31.9181 50.5093 32.2545 50.7002 32.3908 50.6002Z" fill="white"/>
<path d="M31.1181 54.6909C31.6454 54.5909 32.0545 54.3727 32.0181 54.2C31.9817 54.0273 31.5272 53.9636 30.9999 54.0636C30.4726 54.1636 30.0635 54.3818 30.0999 54.5545C30.1272 54.7273 30.5908 54.7909 31.1181 54.6909Z" fill="white"/>
<path d="M39.2089 54.7092C39.4725 54.3547 39.5634 53.9728 39.4271 53.8728C39.2816 53.7728 38.9543 53.9728 38.6998 54.3365C38.4362 54.691 38.3453 55.0728 38.4816 55.1728C38.618 55.2728 38.9453 55.0637 39.2089 54.7092Z" fill="white"/>
<path d="M27.2 52.5636C27.3727 52.6 27.5818 52.2636 27.6727 51.8273C27.7637 51.3818 27.6909 51 27.5182 50.9636C27.3455 50.9273 27.1364 51.2636 27.0455 51.7C26.9546 52.1454 27.0273 52.5273 27.2 52.5636Z" fill="white"/>
<path d="M11.9 18.2911C10.5273 15.9638 10.4091 13.7002 10.2182 13.7184C10.1364 13.7184 10.0546 14.2911 10.1727 15.2093C10.2818 16.1275 10.6364 17.382 11.3546 18.6093C12.0727 19.8366 12.9818 20.7638 13.7182 21.3184C14.4546 21.8729 14.9909 22.082 15.0364 22.0184C15.1455 21.8547 13.2364 20.6366 11.9 18.2911Z" fill="white"/>
<path d="M40.9089 27.591C39.7635 27.9637 38.8271 28.5546 38.2362 29.0728C37.6453 29.591 37.3817 30.0001 37.4362 30.0546C37.5635 30.191 38.9362 28.8637 41.0998 28.191C43.2544 27.4728 45.1362 27.7546 45.1635 27.5637C45.1817 27.4819 44.718 27.3092 43.9362 27.2274C43.1635 27.1546 42.0544 27.2183 40.9089 27.591Z" fill="white"/>
</svg>
