<svg width="60" height="60" viewBox="0 0 60 60" fill="none" xmlns="http://www.w3.org/2000/svg">
<path d="M57.5546 35.2636C56.4728 32.2909 53.8546 29.6272 50.7274 28.1818C53.1728 27.5272 54.991 26.1727 55.7274 24.3636C57.0728 21.0545 55.091 16.7 53.7092 14.6545C52.5274 12.9 49.3092 8.89087 45.0637 9.71814C42.991 10.1181 41.3819 11.6272 40.2092 12.8909C39.691 13.4545 39.2183 14 38.7728 14.5454C39.8455 10.8181 40.5183 5.79996 37.5001 3.21814C36.4092 2.28178 34.791 1.8545 33.0728 2.03632C32.2455 2.12723 31.4819 2.33632 30.7365 2.54541C29.8546 2.79087 29.0183 3.02723 28.1274 3.03632C27.1546 3.04541 26.2819 2.7636 25.3546 2.4636C24.4728 2.17269 23.5546 1.88178 22.5365 1.83632C20.3183 1.72723 18.6001 2.70905 17.5546 4.6545C16.2092 7.1636 16.3183 10.7909 17.2455 13.4363C16.4637 13.0181 15.6455 12.6818 14.791 12.4636C11.0183 11.5 6.21827 12.4454 4.60918 16.7818C4.02736 18.3545 4.25463 19.9363 4.4819 21.4727C4.6819 22.8363 4.87281 24.1272 4.491 25.3363C4.30009 25.9545 3.891 26.5545 3.45463 27.1909C2.75463 28.209 1.97281 29.3636 2.02736 30.809C2.10918 32.709 3.36372 34.7181 5.14554 35.8C6.81827 36.8181 8.90918 37.2363 10.991 37.2363C12.4365 37.2363 13.8728 37.0272 15.1637 36.6818C13.0183 39.4545 11.9819 42.7272 12.3728 45.709C12.9001 49.8 16.3819 53.1727 20.1183 53.2272C20.6274 53.2272 21.1455 53.1909 21.6364 53.1363C22.591 53.0454 23.5001 52.9636 24.2637 53.2909C25.0728 53.6363 25.6455 54.3909 26.2546 55.1909C26.6819 55.7545 27.1274 56.3454 27.691 56.8272C28.791 57.7909 30.0637 58.1727 31.3637 58.1727C33.5637 58.1727 35.8365 57.0636 37.5274 55.7272C40.0364 53.7363 41.7455 50.2909 42.1365 46.5818C42.9274 47 43.7637 47.3 44.6183 47.3909C44.8001 47.409 44.9728 47.4181 45.1455 47.4181C46.3274 47.4181 47.3728 46.9818 48.2728 46.1181C48.7001 45.7 49.0274 45.209 49.3365 44.7363C49.7365 44.1272 50.1183 43.5454 50.6637 43.2636C51.1637 43 51.8001 42.9909 52.4637 42.9818C52.8637 42.9727 53.2637 42.9727 53.6819 42.909C55.2183 42.6909 56.4274 41.9181 57.191 40.6545C58.1092 39.1454 58.2365 37.1272 57.5546 35.2636ZM56.0546 39.9636C55.5092 40.8727 54.6274 41.4272 53.5092 41.5909C53.1819 41.6363 52.8274 41.6454 52.4546 41.6454C51.6637 41.6545 50.8365 41.6727 50.0546 42.0818C49.2001 42.5272 48.7092 43.2818 48.2274 44.009C47.9455 44.4363 47.6728 44.8454 47.3455 45.1636C46.6092 45.8818 45.7637 46.1727 44.7546 46.0727C42.2365 45.809 39.5183 43.0545 38.4001 41.3909C36.4274 38.4545 35.2092 34.709 34.9546 30.8636C34.9274 30.5 34.6183 30.2272 34.2455 30.2454C33.8819 30.2727 33.6001 30.5818 33.6274 30.9545C33.891 35.0363 35.2001 39 37.291 42.1363C37.9546 43.1181 39.2546 44.6454 40.8637 45.809C40.6455 49.4181 39.0637 52.809 36.6819 54.7C34.4092 56.509 30.9092 57.8909 28.5455 55.8363C28.091 55.4363 27.7001 54.9272 27.291 54.3909C26.6001 53.4818 25.891 52.5454 24.7546 52.0636C23.6819 51.609 22.5546 51.709 21.4819 51.8091C21.0001 51.8545 20.5365 51.9 20.1092 51.8909C17.0092 51.8454 14.1183 49 13.6637 45.5363C13.2637 42.4727 14.591 39.0272 17.2001 36.309C19.6546 33.7636 22.891 32.0545 26.0183 30.5818C26.3546 30.4272 26.491 30.0272 26.3364 29.7C26.1819 29.3636 25.7819 29.2272 25.4546 29.3818C22.5001 30.7636 19.4637 32.3727 16.9728 34.6818C16.8546 34.6727 16.7365 34.6727 16.6274 34.7272C13.7001 36.1 8.90918 36.5454 5.80009 34.6545C4.40009 33.8 3.37281 32.1909 3.31827 30.7454C3.30918 29.7454 3.90918 28.8636 4.54554 27.9363C5.01827 27.2454 5.50009 26.5363 5.75463 25.7272C6.22736 24.2272 6.00009 22.7272 5.791 21.2727C5.5819 19.8454 5.3819 18.4909 5.84554 17.2363C7.17281 13.6727 11.2365 12.9272 14.4546 13.7454C20.2274 15.2181 24.4364 22.6454 26.2819 28.5545C26.391 28.909 26.7637 29.1 27.1183 28.9909C27.4728 28.8818 27.6637 28.509 27.5546 28.1545C26.0637 23.3818 23.291 18.0636 19.4546 14.9181C19.4364 14.8363 19.4001 14.7545 19.3455 14.6818C17.8274 12.6181 17.2274 8.0545 18.7183 5.2636C19.5092 3.78178 20.7455 3.0636 22.4637 3.1545C23.3092 3.19087 24.1001 3.4545 24.9365 3.71814C25.9274 4.03632 26.9728 4.3545 28.1364 4.3636C29.2001 4.3545 30.1637 4.08178 31.091 3.81814C31.8092 3.61814 32.491 3.42723 33.2001 3.34541C34.5546 3.19996 35.8092 3.51814 36.6183 4.21814C39.9637 7.09087 37.7274 14.5454 35.8728 18.5C35.8455 18.5636 35.8365 18.6272 35.8274 18.6909C34.691 20.5727 33.7274 22.509 32.6637 24.6727C32.3728 25.2636 32.0637 25.8818 31.7455 26.5181C31.5819 26.8454 31.7183 27.2454 32.0455 27.409C32.3819 27.5727 32.7728 27.4363 32.9365 27.109C33.2546 26.4636 33.5637 25.8545 33.8546 25.2545C36.0455 20.8181 37.6365 17.609 41.1728 13.7818C42.2092 12.6636 43.6183 11.3363 45.3092 11.009C48.7819 10.3363 51.5637 13.8454 52.6001 15.3818C54.2001 17.7545 55.4728 21.4181 54.491 23.8545C53.391 26.5636 49.6274 27.1272 48.5001 27.2272C45.1637 27.5454 39.9546 27.709 36.8819 27.409C36.5183 27.3636 36.191 27.6363 36.1546 28.009C36.1183 28.3727 36.3819 28.7 36.7546 28.7363C37.9274 28.8545 39.391 28.9 40.9546 28.9C43.4092 28.9 46.0728 28.7727 48.1455 28.6C48.2092 28.6545 48.291 28.6909 48.3728 28.7181C51.9455 29.7 55.1274 32.509 56.3001 35.709C56.8455 37.1909 56.7455 38.8181 56.0546 39.9636Z" fill="white"/>
<path d="M30.2365 28.6363C30.3456 28.8818 30.5911 29.0272 30.8456 29.0272C30.9365 29.0272 31.0274 29.0091 31.1184 28.9727C31.4547 28.8181 31.6002 28.4272 31.4547 28.0909C30.4093 25.7727 29.7093 23.3181 29.3274 20.8272C30.2365 19.2909 31.6638 18.8091 33.4729 18.2181L33.6365 18.1636C33.982 18.0454 34.1729 17.6727 34.0638 17.3181C33.9456 16.9727 33.5729 16.7818 33.2274 16.8909L33.0638 16.9454C31.6093 17.4272 30.2093 17.8909 29.1093 18.9545C29.0365 18.1091 29.0002 17.2636 29.0093 16.4181C29.0638 16.3727 29.1184 16.3272 29.1456 16.2636C30.0456 14.6636 31.5002 14.1818 33.3456 13.5818L33.5093 13.5272C33.8547 13.4091 34.0456 13.0363 33.9365 12.6818C33.8184 12.3363 33.4456 12.1454 33.1002 12.2545L32.9365 12.3091C31.5365 12.7727 30.1911 13.2272 29.1184 14.2C29.1638 13.7091 29.2093 13.2181 29.282 12.7272C31.1365 10.4181 32.5456 9.38178 35.0093 8.53633C35.3547 8.41815 35.5456 8.03633 35.4275 7.69087C35.2729 7.35451 34.9002 7.1636 34.5456 7.29088C32.5456 7.97269 31.1365 8.80906 29.7274 10.2091C29.9274 9.35451 30.1729 8.50906 30.4547 7.68178C30.5729 7.33633 30.3911 6.95451 30.0456 6.83633C29.7002 6.71815 29.3184 6.89997 29.2002 7.24542C28.8184 8.34542 28.5184 9.47269 28.282 10.6091C27.4093 9.3636 26.2638 8.12724 25.0729 7.20906C24.782 6.98178 24.3638 7.03633 24.1365 7.33633C23.9093 7.62724 23.9638 8.04542 24.2638 8.27269C25.7184 9.39088 27.1729 11.1 27.9365 12.5727C27.8547 13.1727 27.8002 13.7727 27.7547 14.3727C26.6365 13.4727 25.5547 12.7636 24.3547 11.9909L23.6638 11.5454C23.3547 11.3454 22.9456 11.4363 22.7456 11.7363C22.5456 12.0454 22.6365 12.4545 22.9365 12.6545L23.6365 13.1C25.1365 14.0636 26.3456 14.8545 27.682 16.0363C27.6638 16.9909 27.6911 17.9454 27.7638 18.8909C26.6911 18.0363 25.6456 17.3545 24.4911 16.6091L23.8002 16.1636C23.4911 15.9636 23.082 16.0545 22.882 16.3636C22.682 16.6727 22.7729 17.0818 23.0729 17.2818L23.7638 17.7272C25.3274 18.7363 26.5729 19.5454 27.9729 20.8181C28.3547 23.5 29.1093 26.1454 30.2365 28.6363Z" fill="white"/>
<path d="M33.6637 29.6C33.1183 30.2455 32.1819 31.0182 30.9455 31.3273C29.7001 31.6364 28.5546 31.2546 27.891 30.7546C27.2183 30.2546 26.9001 29.7818 26.8092 29.8455C26.7546 29.8727 26.9274 30.4364 27.6092 31.1C27.9637 31.4 28.4365 31.7546 29.0637 31.9091C29.6728 32.0818 30.391 32.1091 31.1001 31.9364C32.5274 31.5818 33.5365 30.6273 34.0274 29.8637C34.5274 29.0727 34.6092 28.4909 34.5455 28.4727C34.4365 28.4455 34.2092 28.9455 33.6637 29.6Z" fill="white"/>
<path d="M42.7365 16.3C43.4729 15.5546 44.682 14.5727 46.2638 14.5546C47.0365 14.5455 47.7365 14.7818 48.2456 15.2091C48.7547 15.6364 49.182 16.1546 49.5365 16.5546C50.2365 17.3727 50.6365 17.9273 50.7183 17.8727C50.7911 17.8273 50.5274 17.1909 49.8911 16.2818C49.5638 15.8273 49.1911 15.3 48.6183 14.7637C48.0365 14.2273 47.1456 13.9 46.2456 13.9182C45.3456 13.9364 44.5092 14.2364 43.8729 14.6546C43.2274 15.0727 42.7547 15.5637 42.4001 16C41.7001 16.8818 41.4365 17.5182 41.5001 17.5637C41.582 17.6182 41.9911 17.0637 42.7365 16.3Z" fill="white"/>
<path d="M17.8275 46.0999C16.8911 44.7453 16.6002 43.2271 16.8002 42.1908C16.982 41.1362 17.4547 40.5908 17.3729 40.5362C17.3366 40.4726 16.6911 40.9362 16.3638 42.0999C16.0093 43.2362 16.2729 44.9999 17.3002 46.4635C18.282 47.9726 19.8184 48.8453 20.982 48.9817C22.1638 49.1544 22.8547 48.8181 22.8275 48.7544C22.8093 48.6544 22.1184 48.809 21.0729 48.5453C20.0366 48.2908 18.7275 47.4726 17.8275 46.0999Z" fill="white"/>
</svg>
