<svg width="60" height="60" viewBox="0 0 60 60" fill="none" xmlns="http://www.w3.org/2000/svg">
<path d="M22.1001 37.0728C23.9728 37.091 25.8547 37.0001 27.7092 36.8364C27.5092 37.9091 27.0638 39.6728 26.9456 40.0364C26.6365 40.9819 26.2456 41.9364 25.8728 42.8637C25.5547 43.6546 25.2365 44.4364 24.9547 45.2364C24.6819 46.0091 24.7547 46.6182 25.1728 47.0455C25.291 47.1728 25.6274 47.4546 26.1728 47.4546C26.4819 47.4546 26.8638 47.3637 27.3092 47.1001C34.4728 42.8273 38.6456 35.0273 40.8819 29.2364C41.0092 28.9091 40.9183 28.5546 40.6728 28.3091C40.4274 28.0637 40.0547 27.9819 39.7274 28.1001C39.3001 28.2546 36.191 28.8182 34.1365 29.191C33.1183 29.3728 32.3365 29.5182 31.7365 29.6273C31.8456 29.2728 31.9547 28.9273 32.0638 28.5728C32.6365 26.7637 33.2274 24.891 33.5547 22.9455L33.6365 22.491C33.8638 21.2455 34.1819 19.5455 33.5638 18.3637C32.5819 16.5001 29.1365 16.5637 25.6819 16.791C25.3001 16.8182 24.9728 16.8364 24.7183 16.8455C22.1274 16.9273 21.4456 18.0728 21.0456 20.3001C21.0001 20.5455 20.9638 20.791 20.9274 21.0364L19.291 31.5546C19.2274 31.9728 19.1547 32.3637 19.0819 32.7273C18.8183 34.1001 18.591 35.2819 19.3092 36.1546C19.8274 36.7728 20.691 37.0637 22.1001 37.0728ZM20.8092 33.0455C20.8819 32.6637 20.9638 32.2546 21.0274 31.8182L22.6638 21.3001C22.7001 21.0728 22.7365 20.8364 22.7819 20.6091C23.091 18.8819 23.3183 18.6546 24.7728 18.6091C25.0365 18.6001 25.391 18.5819 25.791 18.5546C27.2001 18.4637 31.4638 18.1819 32.0001 19.191C32.3365 19.8273 32.0638 21.3001 31.9001 22.1728L31.8092 22.6546C31.5001 24.4819 30.9547 26.2091 30.3728 28.0455C30.1092 28.8637 29.8547 29.6819 29.6183 30.5091C29.6092 30.5273 29.6092 30.5455 29.6001 30.5546C29.4638 31.0273 29.7365 31.5091 30.2092 31.6455C30.4092 31.7001 30.6183 31.6819 30.8001 31.6091C31.1819 31.5091 32.9001 31.2001 34.4365 30.9273C36.291 30.591 37.6365 30.3455 38.591 30.1546C36.391 35.3455 32.6728 41.6728 26.7728 45.3546C27.0001 44.7455 27.2456 44.1364 27.491 43.5273C27.8728 42.5728 28.2728 41.591 28.6092 40.5819C28.6274 40.5364 30.0274 36.2091 29.3183 35.3273C29.1456 35.1182 28.8547 34.9819 28.5819 34.9819C28.5547 34.9819 28.5274 34.9819 28.5001 34.9819C26.391 35.2091 24.2274 35.3091 22.1001 35.3001C20.9456 35.291 20.7001 35.0637 20.6638 35.0182C20.4819 34.791 20.6547 33.8637 20.8092 33.0455Z" fill="white"/>
<path d="M58.5273 14.1273C58.5637 13.6273 58.6364 13.0273 58.7182 12.3546C59.1818 8.39096 59.8273 2.95459 56.3818 1.80005C55.6727 1.56368 54.9455 1.55459 54.3 1.55459C47.3 1.53641 40.1909 1.59096 33.3182 1.6455C27.5455 1.69096 21.5818 1.73641 15.7091 1.73641C14.5909 1.73641 13.4546 1.69096 12.2637 1.65459C9.87274 1.56368 7.40002 1.47277 5.04547 1.7455C0.218197 2.30914 0.763652 7.27277 1.15456 10.9C1.24547 11.7364 1.32729 12.5182 1.35456 13.2C1.30002 13.3182 1.27274 13.4364 1.27274 13.5637C1.29092 16.2091 1.24547 20.8455 1.18183 26.2182C1.07274 36.5091 0.94547 48.1819 1.25456 51.4637C1.47274 53.7 1.73638 55.6455 2.88183 56.9182C3.8182 57.9637 5.2182 58.4455 7.27274 58.4455H7.28183C10.6364 58.4455 13.9909 58.4091 17.3455 58.3728C18.8909 58.3546 20.4455 58.3364 21.9909 58.3273L26.3182 58.291C34.5 58.2273 42.6909 58.1546 50.8727 58.1C51.4909 58.1 52.1364 58.1364 52.7546 58.1728C55.3455 58.3364 58.5637 58.5364 58.8455 54.2091C58.9818 52.1819 58.9546 41.8364 58.8727 32.491C58.7637 20.291 58.6637 15.8364 58.5273 14.1273ZM5.24547 3.50005C7.46365 3.2455 9.87274 3.33641 12.2 3.41823C13.3637 3.46368 14.5546 3.50914 15.7091 3.50914C21.5909 3.50914 27.5546 3.46368 33.3273 3.41823C40.2 3.36368 47.3091 3.30914 54.2909 3.32732C54.8455 3.32732 55.3727 3.32732 55.8182 3.48186C57.9 4.18186 57.3182 9.17277 56.9637 12.1546C56.9455 12.3364 56.9273 12.5 56.9 12.6728H3.08183C3.04547 12.0546 2.98183 11.4 2.90911 10.7091C2.45456 6.57277 2.37274 3.82732 5.24547 3.50005ZM57.0909 54.091C56.9273 56.5728 55.7546 56.591 52.8727 56.4091C52.2273 56.3637 51.5546 56.3273 50.8727 56.3273C42.6818 56.3819 34.5 56.4546 26.3091 56.5182L21.9818 56.5546C20.4273 56.5637 18.8818 56.5819 17.3273 56.6C13.9818 56.6364 10.6273 56.6728 7.28183 56.6728C7.28183 56.6728 7.28183 56.6728 7.27274 56.6728C5.27274 56.6728 4.56365 56.1364 4.20002 55.7273C3.4182 54.8546 3.20002 53.2 3.0182 51.2819C2.70911 48.1 2.84547 35.9637 2.95456 26.2182C3.00911 21.4 3.05456 17.1637 3.04547 14.4182H56.7455C56.7364 14.5546 56.7364 14.691 56.7364 14.8091C56.7364 14.9546 56.7818 15.0819 56.8364 15.2C57.0455 22.0455 57.3455 50.2637 57.0909 54.091Z" fill="white"/>
<path d="M45.5454 48.2363H14.2181C12.6817 48.2363 11.4363 49.4909 11.4363 51.0181V51.7181C11.4363 53.2545 12.6817 54.5 14.2181 54.5H45.5454C47.0817 54.5 48.3272 53.2454 48.3272 51.7181V51.0181C48.3363 49.4909 47.0817 48.2363 45.5454 48.2363ZM46.5726 51.7272C46.5726 52.2909 46.1181 52.7545 45.5454 52.7545H14.2181C13.6545 52.7545 13.1908 52.3 13.1908 51.7272V51.0272C13.1908 50.4636 13.6454 50 14.2181 50H45.5454C46.109 50 46.5726 50.4545 46.5726 51.0272V51.7272Z" fill="white"/>
<path d="M46.982 11.4727C48.9729 11.4727 50.6001 9.84542 50.6001 7.85451C50.6001 5.8636 48.9729 4.23633 46.982 4.23633C44.991 4.23633 43.3638 5.8636 43.3638 7.85451C43.3638 9.84542 44.991 11.4727 46.982 11.4727ZM46.982 5.99996C48.0092 5.99996 48.8365 6.83633 48.8365 7.85451C48.8365 8.87269 48.0001 9.70906 46.982 9.70906C45.9547 9.70906 45.1274 8.87269 45.1274 7.85451C45.1274 6.83633 45.9638 5.99996 46.982 5.99996Z" fill="white"/>
<path d="M38.9092 11.4727C40.9001 11.4727 42.5274 9.84542 42.5274 7.85451C42.5274 5.8636 40.9092 4.23633 38.9092 4.23633C36.9183 4.23633 35.291 5.8636 35.291 7.85451C35.291 9.84542 36.9183 11.4727 38.9092 11.4727ZM38.9092 5.99996C39.9365 5.99996 40.7637 6.83633 40.7637 7.85451C40.7637 8.87269 39.9274 9.70906 38.9092 9.70906C37.8819 9.70906 37.0547 8.87269 37.0547 7.85451C37.0547 6.83633 37.891 5.99996 38.9092 5.99996Z" fill="white"/>
<path d="M10.5637 11.4727C12.5546 11.4727 14.1819 9.84542 14.1819 7.85451C14.1819 5.8636 12.5546 4.23633 10.5637 4.23633C8.57283 4.23633 6.94556 5.85451 6.94556 7.85451C6.94556 9.85451 8.57283 11.4727 10.5637 11.4727ZM10.5637 5.99996C11.591 5.99996 12.4183 6.83633 12.4183 7.85451C12.4183 8.87269 11.5819 9.70906 10.5637 9.70906C9.53647 9.70906 8.70919 8.87269 8.70919 7.85451C8.70919 6.83633 9.54556 5.99996 10.5637 5.99996Z" fill="white"/>
<path d="M24.4092 25.4274C24.7546 25.3547 24.7728 24.0638 25.6274 22.8547C26.4274 21.6001 27.6001 21.091 27.5365 20.7456C27.5001 20.591 27.1001 20.491 26.491 20.6729C25.891 20.8456 25.1183 21.3547 24.5728 22.1638C24.0365 22.9729 23.8637 23.8819 23.9365 24.5001C24.0001 25.1183 24.2455 25.4547 24.4092 25.4274Z" fill="white"/>
<path d="M52.391 19.2727C52.0274 19.3454 52.3547 22.0091 51.9638 25.2363C51.6092 28.4636 50.6729 30.9818 51.0092 31.1363C51.291 31.3 52.8183 28.8454 53.2092 25.3818C53.6365 21.9182 52.7092 19.1818 52.391 19.2727Z" fill="white"/>
</svg>
