<svg width="60" height="60" viewBox="0 0 60 60" fill="none" xmlns="http://www.w3.org/2000/svg">
<path d="M13.4454 43.3363C16.8636 43.3363 19.6454 40.5545 19.6454 37.1363C19.6454 33.7181 16.8636 30.9363 13.4454 30.9363C10.0272 30.9363 7.24538 33.7181 7.24538 37.1363C7.23629 40.5454 10.0272 43.3363 13.4454 43.3363ZM13.4454 32.6636C15.909 32.6636 17.909 34.6636 17.909 37.1272C17.909 39.5908 15.909 41.5908 13.4454 41.5908C10.9817 41.5908 8.98175 39.5908 8.98175 37.1272C8.98175 34.6636 10.9817 32.6636 13.4454 32.6636Z" fill="white"/>
<path d="M21.3727 47.1818C18.6 45.3364 16.1909 43.9545 12.6091 44.3727C9.22726 44.7636 5.92726 46.8 3.55453 49.9545C1.99999 52.0182 1.52726 53.7091 2.13635 54.9818C2.70908 56.1818 4.14544 56.8182 6.41817 56.8909C7.93635 56.9364 9.46362 56.9636 11.0273 56.9636C13.2364 56.9636 15.5091 56.9182 17.8818 56.8182C18.2182 56.8091 18.6727 56.8182 19.1818 56.8364C21.4091 56.9091 24.4727 57.0091 25.5727 55.3454C25.8727 54.8909 25.9727 54.3273 25.8727 53.6636C25.5 51.3273 22.4909 47.9273 21.3727 47.1818ZM24.1273 54.3818C23.5545 55.2364 20.7454 55.1454 19.2363 55.0909C18.6727 55.0727 18.1818 55.0545 17.8091 55.0727C13.8091 55.2364 10.1 55.2545 6.47271 55.1454C4.97271 55.1 3.96362 54.7636 3.70908 54.2182C3.41817 53.6 3.86362 52.4273 4.94544 50.9818C6.99999 48.2454 9.93635 46.4182 12.8091 46.0818C13.1818 46.0363 13.5364 46.0182 13.8727 46.0182C16.3091 46.0182 18.0909 47.0727 20.4091 48.6182C21.4273 49.2909 23.9 52.3091 24.1545 53.9273C24.1909 54.1818 24.1636 54.3273 24.1273 54.3818Z" fill="white"/>
<path d="M58.0817 53.6637C57.709 51.3182 54.6999 47.9273 53.5817 47.1728C50.809 45.3273 48.3999 43.9455 44.8181 44.3637C41.4362 44.7546 38.1362 46.791 35.7635 49.9455C34.209 52.0091 33.7362 53.7 34.3453 54.9728C34.9181 56.1728 36.3544 56.8091 38.6272 56.8819C40.1453 56.9273 41.6726 56.9546 43.2362 56.9546C45.4453 56.9546 47.7181 56.9091 50.0908 56.8091C50.4272 56.8 50.8817 56.8091 51.3908 56.8273C53.6272 56.9 56.6817 57 57.7817 55.3455C58.0817 54.9 58.1817 54.3364 58.0817 53.6637ZM56.3362 54.3819C55.7635 55.2364 52.9544 55.1455 51.4453 55.091C50.8817 55.0728 50.3908 55.0546 50.0181 55.0728C46.0181 55.2364 42.309 55.2546 38.6817 55.1455C37.1817 55.1 36.1726 54.7637 35.9181 54.2182C35.6272 53.6 36.0726 52.4273 37.1544 50.9819C39.209 48.2455 42.1453 46.4182 45.0181 46.0819C45.3908 46.0364 45.7453 46.0182 46.0817 46.0182C48.5181 46.0182 50.2999 47.0728 52.6181 48.6182C53.6362 49.291 56.109 52.3091 56.3635 53.9273C56.3999 54.1819 56.3726 54.3273 56.3362 54.3819Z" fill="white"/>
<path d="M18.7635 27.5363C19.3363 28.7363 20.7726 29.3727 23.0453 29.4454C24.5453 29.4908 26.0817 29.5181 27.6453 29.5181C29.8726 29.5181 32.1635 29.4727 34.4999 29.3727C34.8453 29.3636 35.2908 29.3727 35.7999 29.3908C38.0363 29.4636 41.0908 29.5636 42.1908 27.8999C42.4908 27.4454 42.5908 26.8817 42.4817 26.2181C41.5363 20.2272 34.5635 16.2999 29.2181 16.9181C25.8363 17.309 22.5363 19.3454 20.1635 22.4999C18.6272 24.5727 18.1453 26.2636 18.7635 27.5363ZM21.5635 23.5454C23.6181 20.809 26.5544 18.9817 29.4272 18.6454C29.7363 18.609 30.0453 18.5908 30.3635 18.5908C34.7272 18.5908 40.0363 21.8454 40.7726 26.4908C40.8181 26.7999 40.7635 26.909 40.7453 26.9363C40.1726 27.7908 37.3635 27.6999 35.8544 27.6454C35.2908 27.6272 34.7908 27.609 34.4272 27.6272C30.4908 27.7908 26.6726 27.809 23.0908 27.6999C21.5908 27.6545 20.5817 27.3181 20.3272 26.7727C20.0363 26.1636 20.4817 24.9908 21.5635 23.5454Z" fill="white"/>
<path d="M39.8999 37.1272C39.8999 40.5454 42.6817 43.3272 46.0999 43.3272C49.5181 43.3272 52.2999 40.5454 52.2999 37.1272C52.2999 33.7091 49.5181 30.9272 46.0999 30.9272C42.6817 30.9272 39.8999 33.7091 39.8999 37.1272ZM50.5726 37.1272C50.5726 39.5909 48.5726 41.5909 46.109 41.5909C43.6454 41.5909 41.6454 39.5909 41.6454 37.1272C41.6454 34.6636 43.6454 32.6636 46.109 32.6636C48.5635 32.6636 50.5726 34.6636 50.5726 37.1272Z" fill="white"/>
<path d="M30.5272 15.4454C33.9453 15.4454 36.7271 12.6636 36.7271 9.24541C36.7271 5.82723 33.9453 3.04541 30.5272 3.04541C27.109 3.04541 24.3271 5.82723 24.3271 9.24541C24.3271 12.6636 27.109 15.4454 30.5272 15.4454ZM30.5272 4.77268C32.9908 4.77268 34.9908 6.77268 34.9908 9.23632C34.9908 11.7 32.9908 13.7 30.5272 13.7C28.0635 13.7 26.0635 11.7 26.0635 9.23632C26.0635 6.78177 28.0635 4.77268 30.5272 4.77268Z" fill="white"/>
<path d="M8.2546 28.3818C8.32733 28.4 8.40005 28.409 8.48187 28.409C8.86369 28.409 9.21824 28.1545 9.31824 27.7636C10.8546 21.9727 14.5364 16.6818 19.4364 13.2363C19.8273 12.9636 19.9273 12.4181 19.6455 12.0272C19.3728 11.6363 18.8273 11.5363 18.4364 11.8181C13.2091 15.4909 9.27278 21.1363 7.63642 27.3181C7.51824 27.7818 7.79096 28.2545 8.2546 28.3818Z" fill="white"/>
<path d="M39.8181 12.2728C44.8 14.8455 48.2182 20.1182 48.5091 25.7182C48.5363 26.1819 48.9182 26.5455 49.3727 26.5455H49.4182C49.9 26.5182 50.2636 26.1091 50.2363 25.6273C49.9091 19.4182 46.1272 13.5728 40.6091 10.7273C40.1818 10.5091 39.6636 10.6728 39.4363 11.1001C39.2182 11.5273 39.3909 12.0546 39.8181 12.2728Z" fill="white"/>
<path d="M35.7817 44.4726C35.5908 44.0271 35.0817 43.8271 34.6363 44.018C30.709 45.709 25.9726 45.4362 22.2635 43.318C21.8454 43.0817 21.3181 43.2271 21.0817 43.6453C20.8454 44.0635 20.9908 44.5908 21.409 44.8271C23.7635 46.1726 26.4817 46.8544 29.1999 46.8544C31.2999 46.8544 33.3999 46.4453 35.3272 45.618C35.7726 45.4271 35.9726 44.918 35.7817 44.4726Z" fill="white"/>
<path d="M11.7272 38.4999C11.8272 38.3544 11.6635 38.0726 11.5181 37.6544C11.3726 37.2453 11.2544 36.6726 11.3726 36.109C11.4908 35.5454 11.8272 35.0726 12.1363 34.7635C12.4363 34.4454 12.6999 34.2544 12.6635 34.0726C12.6363 33.9181 12.2453 33.7908 11.6635 34.0181C11.0999 34.2272 10.3726 34.8544 10.1544 35.8544C9.94535 36.8544 10.3635 37.7181 10.7908 38.1453C11.2272 38.5817 11.6363 38.6272 11.7272 38.4999Z" fill="white"/>
<path d="M47.6999 39.8271C47.7817 39.9635 48.1544 39.9362 48.609 39.5908C49.0544 39.2544 49.5181 38.5726 49.6635 37.7271C49.809 36.8817 49.5999 36.0817 49.2908 35.618C48.9817 35.1453 48.6453 34.9908 48.5181 35.0908C48.2544 35.318 48.6817 36.2999 48.4362 37.518C48.2635 38.7362 47.5272 39.5271 47.6999 39.8271Z" fill="white"/>
<path d="M30.5999 7.29075C31.3544 7.60893 31.7544 8.19984 32.0999 8.15439C32.2544 8.12712 32.3817 7.83621 32.2544 7.39984C32.1363 6.97257 31.7363 6.4453 31.1181 6.15439C30.4999 5.87257 29.8363 5.89984 29.4363 6.09984C29.0272 6.29075 28.8908 6.57257 28.9726 6.70893C29.1635 6.99984 29.8635 6.91803 30.5999 7.29075Z" fill="white"/>
</svg>
