<svg width="60" height="60" viewBox="0 0 60 60" fill="none" xmlns="http://www.w3.org/2000/svg">
<path d="M57.5273 29.1181C54.8273 23.2545 48.8545 19.6727 43.1273 17.9363C43.8818 13.1181 42.4091 7.60906 37.3545 6.72724C34.9818 6.31815 32.7909 6.7636 31.1909 7.99088C29.8818 8.99088 29.0364 10.4545 28.7273 12.2545C28.5818 12.2818 28.4273 12.2909 28.2909 12.3363C26.1455 13.0181 26 14.8636 25.9909 16.3454C14.9455 16.9636 3.18181 20.7909 1.32727 32.0818C0.427267 37.5454 2.63636 46.6272 7.23636 50.9181C9.54545 53.0727 12.2818 53.8545 15.1545 53.1818C17.1364 52.7182 18.0091 51.0272 18.7818 49.5363C18.9545 49.2 19.1273 48.8636 19.3182 48.5545C21.3909 45.0454 25.5545 42.8818 30.1909 42.8818H30.2909C34.7273 42.9091 38.5273 44.9363 40.4636 48.3091C42.7545 52.3 45.1909 53.4272 47.2273 53.4272C47.9273 53.4272 48.5818 53.2909 49.1636 53.0909C52.4818 51.9636 55.2818 49.0727 57.0455 44.9636C59.2909 39.7363 59.4818 33.3727 57.5273 29.1181ZM32.2455 9.37269C33.4545 8.44542 35.1636 8.11815 37.0455 8.44542C41.4091 9.19997 41.8182 14.4909 41.4091 17.4636C40.6455 17.2818 39.8909 17.1181 39.1545 17C38.7182 16.9272 38.2727 16.8636 37.8091 16.8C36.2455 16.5909 34.5364 16.4272 32.7364 16.3272C32.7273 15.8636 32.6909 15.4091 32.6545 14.9545L32.6364 14.7091C32.5727 13.9272 32.1545 13.2454 31.4636 12.7818C31.1818 12.5909 30.8455 12.4636 30.5 12.3545C30.7636 11.0818 31.3364 10.0727 32.2455 9.37269ZM28.8182 14C29.3273 13.8363 30.0455 13.9363 30.4909 14.2363C30.8636 14.4818 30.8818 14.7636 30.8909 14.8545L30.9091 15.1C30.9455 15.5 30.9727 15.8909 30.9818 16.2636C29.9182 16.2363 28.8364 16.2363 27.7364 16.2636C27.7636 14.9091 27.9182 14.2909 28.8182 14ZM55.4364 44.2727C53.8727 47.9182 51.4455 50.4636 48.6 51.4363C46.2 52.2545 43.9727 50.9091 41.9818 47.4363C39.7364 43.5182 35.3727 41.1636 30.3 41.1272C30.2636 41.1272 30.2273 41.1272 30.1818 41.1272C24.9273 41.1272 20.1909 43.6272 17.8 47.6636C17.6 48 17.4091 48.3636 17.2182 48.7272C16.5636 49.9909 15.9364 51.1909 14.7455 51.4727C12.4454 52.0182 10.3182 51.4 8.43636 49.6363C4.01818 45.5182 2.32727 36.8 3.05454 32.3636C5.40909 18.0272 26.6636 17.0454 37.5727 18.5363C38.0182 18.6 38.4545 18.6636 38.8727 18.7272C45.1182 19.7545 52.8727 23.2182 55.9273 29.8454C57.6909 33.6818 57.4909 39.4727 55.4364 44.2727Z" fill="white"/>
<path d="M15.1001 23.8545C9.73644 23.8545 5.3728 28.3545 5.3728 33.8909C5.3728 39.4272 9.73644 43.9272 15.1001 43.9272C20.4637 43.9272 24.8273 39.4272 24.8273 33.8909C24.8273 28.3545 20.4637 23.8545 15.1001 23.8545ZM15.1001 42.1727C10.7092 42.1727 7.12735 38.4545 7.12735 33.8909C7.12735 29.3272 10.7001 25.609 15.1001 25.609C19.5001 25.609 23.0728 29.3272 23.0728 33.8909C23.0728 38.4545 19.5001 42.1727 15.1001 42.1727Z" fill="white"/>
<path d="M52.9091 35.7545C50.7182 32.4908 47.7637 29.8454 44.9273 27.3999C41.4 24.3636 38.9364 25.4363 37.491 26.8727C35.5 28.8545 35.4 31.7363 37.2273 34.209C39.6546 37.4817 42.4364 40.4908 45.5091 43.1727C46.2364 43.7999 47.8728 45.2363 49.9182 45.2363C50.5273 45.2363 51.1728 45.109 51.8364 44.7908C53.9273 43.7999 54.6273 41.3545 54.391 39.3636C54.2546 38.2181 53.7728 37.0363 52.9091 35.7545ZM51.0819 43.1999C49.7637 43.8272 48.4819 43.4272 46.6546 41.8454C43.6819 39.2545 40.9819 36.3363 38.6364 33.1636C37.6182 31.7817 37.1 29.7363 38.7273 28.1181C39.2091 27.6363 39.8182 27.209 40.6546 27.209C41.4546 27.209 42.4637 27.5999 43.7728 28.7363C46.5182 31.0999 49.3728 33.6636 51.4455 36.7363C52.1455 37.7817 52.5364 38.709 52.6364 39.5636C52.8091 40.9363 52.3819 42.5908 51.0819 43.1999Z" fill="white"/>
<path d="M43.3001 23.6455C44.6728 24.0637 45.5092 24.4182 45.6092 24.2546C45.691 24.1182 44.991 23.4818 43.6274 22.8182C42.2728 22.1455 40.2274 21.5546 37.9456 21.3364C35.6637 21.1182 33.6001 21.2364 32.1274 21.3909C30.6546 21.5546 29.7546 21.7546 29.7637 21.9273C29.7728 22.1 30.691 22.2091 32.1546 22.2728C33.6183 22.3455 35.6365 22.3728 37.8183 22.5818C40.0001 22.8 41.9274 23.2182 43.3001 23.6455Z" fill="white"/>
<path d="M49.2364 35.7C48.6182 35.2909 47.8637 35.1545 47.1273 35.2909C46.3909 35.4363 45.7546 35.8454 45.3273 36.4545C44.8909 37.0727 44.7364 37.8091 44.8728 38.5454C45.0091 39.2727 45.4364 39.9 46.0728 40.3182C46.5364 40.6182 47.0728 40.7818 47.6273 40.7818C47.8091 40.7818 48 40.7636 48.1819 40.7272C48.9182 40.5818 49.5546 40.1727 49.9819 39.5636C50.4182 38.9454 50.5728 38.2091 50.4364 37.4727C50.2909 36.7363 49.8637 36.1091 49.2364 35.7ZM48.5455 38.5454C48.3819 38.7818 48.1364 38.9363 47.8455 38.9909C47.5546 39.0454 47.2728 38.9909 47.0364 38.8363C46.8091 38.6909 46.6546 38.4636 46.6091 38.2091C46.5637 37.9545 46.6182 37.6818 46.7728 37.4636C46.9364 37.2272 47.1819 37.0727 47.4728 37.0182C47.5455 37 47.6182 37 47.6909 37C47.9 37 48.1091 37.0636 48.2819 37.1727C48.5091 37.3182 48.6637 37.5454 48.7091 37.8C48.7637 38.0636 48.7 38.3272 48.5455 38.5454Z" fill="white"/>
<path d="M45.3091 33.7271C45.7454 33.109 45.9 32.3726 45.7636 31.6362C45.4727 30.1362 43.9909 29.1635 42.4636 29.4635C40.9363 29.7635 39.9182 31.218 40.2091 32.709C40.3454 33.4362 40.7727 34.0635 41.4091 34.4817C41.8727 34.7817 42.4091 34.9453 42.9636 34.9453C43.1454 34.9453 43.3363 34.9271 43.5182 34.8908C44.2363 34.7453 44.8818 34.3271 45.3091 33.7271ZM43.8727 32.7181C43.7091 32.9544 43.4636 33.109 43.1727 33.1635C42.8818 33.218 42.6 33.1635 42.3636 33.009C42.1363 32.8635 41.9818 32.6362 41.9363 32.3817C41.8272 31.8362 42.2182 31.2999 42.8 31.1908C43.3818 31.0817 43.9363 31.4271 44.0454 31.9726C44.0818 32.2271 44.0272 32.4908 43.8727 32.7181Z" fill="white"/>
<path d="M17.8272 31.1727V28.5818C17.8272 28.1 17.4363 27.7 16.9454 27.7H13.2544C12.7726 27.7 12.3726 28.0909 12.3726 28.5818V31.1727H9.78172C9.2999 31.1727 8.8999 31.5636 8.8999 32.0545V35.7454C8.8999 36.2272 9.29081 36.6272 9.78172 36.6272H12.3726V39.2181C12.3726 39.7 12.7635 40.1 13.2544 40.1H16.9454C17.4272 40.1 17.8272 39.709 17.8272 39.2181V36.6272H20.4181C20.8999 36.6272 21.2999 36.2363 21.2999 35.7454V32.0545C21.2999 31.5727 20.909 31.1727 20.4181 31.1727H17.8272ZM19.5363 34.8636H16.9454C16.4635 34.8636 16.0635 35.2545 16.0635 35.7454V38.3363H14.1272V35.7454C14.1272 35.2636 13.7363 34.8636 13.2454 34.8636H10.6544V32.9272H13.2454C13.7272 32.9272 14.1272 32.5363 14.1272 32.0454V29.4545H16.0635V32.0454C16.0635 32.5272 16.4544 32.9272 16.9454 32.9272H19.5363V34.8636Z" fill="white"/>
<path d="M9.58192 46.7273C7.51828 44.7364 6.5001 42.5546 6.16374 42.6818C6.00919 42.7364 6.06374 43.3818 6.44555 44.3364C6.82737 45.2818 7.58192 46.5182 8.70919 47.6273C9.83646 48.7273 11.091 49.4546 12.0456 49.8182C13.0092 50.1818 13.6456 50.2182 13.7001 50.0636C13.8183 49.7182 11.6183 48.7546 9.58192 46.7273Z" fill="white"/>
</svg>
