<svg width="36" height="36" viewBox="0 0 80 80" fill="currentColor" xmlns="http://www.w3.org/2000/svg">
    <path
      fill="white"
      d="M64.69 17.5501C64.4978 17.4025 64.2623 17.3225 64.02 17.3225C63.7777 17.3225 63.5421 17.4025 63.35 17.5501C62.8994 17.843 62.4776 18.1779 62.09 18.5501C59.73 20.8301 57.39 23.1401 55.03 25.4201C54.34 26.0901 53.64 26.7401 52.91 27.4201C51.28 28.8401 49.65 30.2501 47.99 31.6401C46.8257 32.655 45.5742 33.5652 44.25 34.3601C43.5528 34.7887 42.7753 35.0701 41.9653 35.187C41.1553 35.304 40.3299 35.254 39.54 35.0401C37.5329 34.4837 35.6882 33.4551 34.16 32.0401C33.27 31.2601 31.78 29.6201 31.43 29.3601C31.095 29.0509 30.6558 28.8795 30.2 28.8801C29.957 28.8743 29.7154 28.9184 29.4901 29.0095C29.2648 29.1007 29.0606 29.237 28.89 29.4101L28.83 29.4701C28.659 29.6402 28.5241 29.843 28.433 30.0663C28.342 30.2896 28.2967 30.529 28.3 30.7701C28.3248 31.2361 28.5249 31.6754 28.86 32.0001C28.86 32.0001 30.32 33.4801 31.06 34.3701C36.18 40.5901 35.31 44.9401 33.93 47.3701C33.7813 47.6404 33.6606 47.9252 33.57 48.2201C33.5378 48.2974 33.5272 48.382 33.5396 48.4648C33.5519 48.5477 33.5866 48.6255 33.64 48.6901L64.74 17.5901L64.69 17.5501Z"
    />
    <path
      fill="white"
      d="M20.34 67.4899C20.5322 67.6375 20.7677 67.7175 21.01 67.7175C21.2523 67.7175 21.4878 67.6375 21.68 67.4899C22.1337 67.197 22.5589 66.8622 22.95 66.4899C25.31 64.2699 27.64 61.9999 30 59.6799C30.69 59.0099 31.39 58.3499 32.12 57.6799C33.7533 56.2865 35.38 54.8932 37 53.4999C38.1677 52.4849 39.4226 51.5747 40.75 50.7799C41.4472 50.3513 42.2247 50.0699 43.0347 49.953C43.8447 49.836 44.67 49.886 45.46 50.0999C47.463 50.6588 49.3039 51.6872 50.83 53.0999C51.72 53.8799 53.21 55.5199 53.57 55.7799C53.9117 56.1034 54.3644 56.2837 54.835 56.2837C55.3056 56.2837 55.7583 56.1034 56.1 55.7799L56.16 55.7199C56.3328 55.5512 56.469 55.3487 56.5602 55.125C56.6514 54.9014 56.6956 54.6613 56.69 54.4199C56.6892 54.1737 56.6392 53.9301 56.5431 53.7034C56.4469 53.4768 56.3065 53.2716 56.13 53.0999C56.13 53.0999 54.71 51.5899 54 50.6999C48.87 44.4799 49.75 40.1299 51.13 37.6999C51.2731 37.4247 51.3902 37.1368 51.48 36.8399C51.5116 36.7648 51.5228 36.6826 51.5122 36.6018C51.5017 36.5209 51.4698 36.4444 51.42 36.3799L20.3 67.4499C20.3 67.4499 20.32 67.4799 20.34 67.4899Z"
    />
  </svg>