<svg width="30" height="30" viewBox="0 0 30 30" fill="none" xmlns="http://www.w3.org/2000/svg">
<path d="M1.16406 29.1074C1.51562 29.4473 1.91992 29.6699 2.37695 29.7754C2.8457 29.8926 3.30273 29.8926 3.74805 29.7754C4.20508 29.6699 4.59766 29.459 4.92578 29.1426L14.9629 19.1055L24.9824 29.125C25.3105 29.4648 25.7031 29.6875 26.1602 29.793C26.6172 29.8984 27.0742 29.8926 27.5312 29.7754C27.9883 29.6699 28.3867 29.4473 28.7266 29.1074C29.0664 28.7676 29.2891 28.3691 29.3945 27.9121C29.5117 27.4551 29.5176 26.998 29.4121 26.541C29.3066 26.084 29.0898 25.6914 28.7617 25.3633L18.7422 15.3262L28.7617 5.30664C29.0898 4.9668 29.3066 4.57422 29.4121 4.12891C29.5293 3.67188 29.5293 3.21484 29.4121 2.75781C29.2949 2.30078 29.0664 1.90234 28.7266 1.5625C28.375 1.22266 27.9707 0.994141 27.5137 0.876953C27.0684 0.759766 26.6172 0.759766 26.1602 0.876953C25.7031 0.982422 25.3105 1.19922 24.9824 1.52734L14.9629 11.5469L4.92578 1.52734C4.59766 1.19922 4.20508 0.982422 3.74805 0.876953C3.29102 0.771484 2.82812 0.771484 2.35938 0.876953C1.90234 0.982422 1.50391 1.21094 1.16406 1.5625C0.835938 1.90234 0.613281 2.30078 0.496094 2.75781C0.390625 3.21484 0.390625 3.67188 0.496094 4.12891C0.613281 4.58594 0.830078 4.97266 1.14648 5.28906L11.1836 15.3262L1.14648 25.3809C0.830078 25.6973 0.613281 26.084 0.496094 26.541C0.378906 26.9863 0.373047 27.4434 0.478516 27.9121C0.595703 28.3691 0.824219 28.7676 1.16406 29.1074Z" fill="white"/>
</svg>
