<svg width="60" height="60" viewBox="0 0 60 60" fill="none" xmlns="http://www.w3.org/2000/svg">
<path d="M26.1091 4.83643C18.3 4.83643 11.9546 16.1001 11.9546 29.9364C11.9546 43.7819 18.3091 55.0364 26.1091 55.0364C33.9091 55.0364 40.2728 43.7819 40.2728 29.9364C40.2728 16.091 33.9182 4.83643 26.1091 4.83643ZM26.1091 53.2728C19.2728 53.2728 13.7182 42.8001 13.7182 29.9364C13.7182 17.0728 19.2819 6.60006 26.1091 6.60006C32.9455 6.60006 38.5 17.0728 38.5 29.9364C38.5 42.8001 32.9455 53.2728 26.1091 53.2728Z" fill="white"/>
<path d="M51.0182 21.291C50.0909 15.5001 48.0364 10.191 45.2273 6.33647C41.0182 0.554649 34.3091 0.791013 28.3818 1.0001C27.6364 1.02738 26.9091 1.05465 26.1818 1.06374C16.2546 1.09101 8.19092 14.291 8.19092 30.5274C8.19092 46.5365 16.2636 59.0819 26.5636 59.0819C26.8909 59.0819 27.2182 59.0637 27.5455 59.0456C27.6091 59.0637 27.6727 59.0819 27.7455 59.0819H28.5182H29.0455C35.3273 59.0819 41.7455 58.9183 45.9909 52.6183C49.1455 47.9365 51.1636 41.691 51.6727 35.0183C51.9909 30.6365 51.7818 26.0183 51.0182 21.291ZM9.95455 30.5274C9.95455 15.2547 17.2455 2.83647 26.2091 2.83647C35.1727 2.83647 42.4546 15.2547 42.4546 30.5274C42.4546 45.5547 35.4727 57.3183 26.5546 57.3183C17.4 57.3183 9.95455 45.3001 9.95455 30.5274ZM49.1091 40.3183C48.4909 40.291 47.5364 40.3547 46.4727 40.4274C44.6818 40.5547 43.1909 40.6637 43.1546 41.0183C43.1091 41.3547 44.6364 41.8274 46.5636 41.6819C47.5 41.6183 48.3273 41.4274 48.9182 41.2001C48.6091 42.5001 48.2364 43.7547 47.8091 44.9728C47.2636 44.9183 46.5636 44.9001 45.8 44.9092C44.1182 44.9274 42.7273 45.0547 42.6909 45.4092C42.6546 45.7456 44.0455 46.191 45.8182 46.1728C46.4182 46.1637 46.9727 46.1092 47.4455 46.0183C46.6818 47.9819 45.7455 49.791 44.6818 51.4183C44.0636 51.4365 43.1909 51.5365 42.2 51.5728C40.4273 51.6637 38.9546 51.5274 38.8636 51.8728C38.7546 52.191 40.2636 52.9274 42.2636 52.8274C42.8546 52.8001 43.3818 52.7092 43.8546 52.5819C41.0182 56.1092 37.2182 57.0274 33.0455 57.2637C39.7273 53.2637 44.2455 43.1001 44.2455 30.5456C44.2455 17.6637 39.1636 6.7001 32.1091 2.7092C35.2 2.71829 38.1909 3.05465 40.7 4.52738C40.3364 4.51829 39.9182 4.52738 39.4818 4.56374C38.0636 4.7001 36.9364 5.09101 36.9727 5.43647C37.0091 5.78192 38.1818 5.95465 39.6 5.81829C40.5636 5.72738 41.3727 5.51829 41.8 5.29101C42.5364 5.86374 43.2182 6.55465 43.8364 7.4001C44.2364 7.95465 44.6182 8.55465 44.9909 9.17283C44.5091 9.08192 43.7909 9.06374 42.9818 9.10011C41.6 9.17283 40.4546 9.40011 40.4364 9.74556C40.4182 10.091 41.5818 10.4365 43.0455 10.3547C44.0909 10.3001 44.9546 10.0456 45.3455 9.78192C46.0091 10.9637 46.6182 12.2274 47.1455 13.5819C46.6909 13.491 45.9546 13.491 45.1364 13.5456C43.8273 13.6274 42.7455 13.8001 42.7091 14.1546C42.6727 14.491 43.7909 14.891 45.2091 14.8001C46.1909 14.7365 46.9909 14.4728 47.3727 14.2001C47.9818 15.8365 48.4909 17.5728 48.8818 19.3819C48.3364 19.3546 47.6091 19.3819 46.8091 19.4001C45.1818 19.4546 43.8273 19.5092 43.7727 19.8547C43.7091 20.191 45.0818 20.7183 46.8546 20.6546C47.7364 20.6274 48.5182 20.4637 49.0636 20.2547C49.1455 20.7001 49.2364 21.1365 49.3091 21.591C49.5909 23.3547 49.7727 25.091 49.9 26.8092C49.3909 26.7637 48.6546 26.791 47.8364 26.8183C46.3818 26.891 45.1636 26.9547 45.1091 27.3001C45.0455 27.6365 46.2818 28.1456 47.8909 28.0728C48.7455 28.0365 49.4727 27.8456 49.9636 27.6274C50.0909 29.6819 50.0909 31.7001 49.9909 33.6637C49.4818 33.6456 48.8273 33.6819 48.1091 33.7547C46.5909 33.9092 45.3546 34.1547 45.3364 34.5092C45.3273 34.8547 46.6273 35.1728 48.2273 35.0092C48.8909 34.9456 49.4727 34.8092 49.9364 34.6456C49.9273 34.7274 49.9273 34.8183 49.9273 34.9092C49.7636 36.7456 49.4818 38.5546 49.1091 40.3183Z" fill="white"/>
<path d="M17.091 25.8638C16.5728 30.7002 17.6365 34.5638 17.9456 34.4729C18.3092 34.4093 17.8365 30.6184 18.3456 25.9911C18.8092 21.3638 20.0546 17.7457 19.7092 17.6093C19.4183 17.4638 17.5728 21.0184 17.091 25.8638Z" fill="white"/>
</svg>
