<svg width="60" height="60" viewBox="0 0 60 60" fill="none" xmlns="http://www.w3.org/2000/svg">
<path d="M58.7272 16.8092C58.7272 13.7364 56.4545 11.2455 53.6545 11.2455C50.8545 11.2455 48.5818 13.7455 48.5818 16.8092C48.5818 17.9819 48.9182 19.0637 49.4818 19.9637C47.4182 22.0183 45.3545 24.1364 43.3545 26.191C41.5818 28.0092 39.7636 29.8728 37.9454 31.7001L32.0909 12.5092C33.8545 11.6364 35.0909 9.69099 35.0909 7.43644C35.0909 4.36371 32.8182 1.8728 30.0182 1.8728C27.2182 1.8728 24.9454 4.3728 24.9454 7.43644C24.9454 8.9728 25.5182 10.3728 26.4454 11.3819C25.7182 14.891 24.8818 18.4455 24.0727 21.9001C23.3182 25.0819 22.5454 28.3637 21.8545 31.6183C18.1273 27.9819 14.4727 24.2001 10.9727 20.3546C11.2636 19.6546 11.4273 18.8819 11.4273 18.0728C11.4273 15.0001 9.15452 12.5092 6.35452 12.5092C3.55452 12.5092 1.27271 14.991 1.27271 18.0637C1.27271 21.1364 3.54543 23.6273 6.34543 23.6273C6.56361 23.6273 6.77271 23.6092 6.9818 23.5819C8.56361 29.6274 9.77271 34.6273 10.8454 39.0455C11.7 42.5637 12.4454 45.6364 13.2091 48.5728H9.13634C7.99998 48.5728 7.00907 49.3455 6.72725 50.4546C6.65452 50.7364 6.52725 51.1092 6.37271 51.5364C5.76361 53.2819 5.00907 55.4546 5.79089 56.8728C5.92725 57.1274 6.10907 57.3364 6.32725 57.5092C6.76361 57.8546 8.32725 58.1273 19.2 58.1273C25.0727 58.1273 33.6636 58.0455 46.2454 57.8546C48.8636 57.8183 50.6545 57.7819 51.1273 57.791L51.5363 57.8001C52.6363 57.8274 54.1363 57.8546 54.5091 55.7092C54.7454 54.291 54.1454 52.8546 53.6091 51.5819C53.4182 51.1274 53.2363 50.7001 53.1182 50.3092C52.7909 49.2728 51.8363 48.5819 50.7545 48.5819H47.0545L53.7545 22.3637C56.5 22.3183 58.7272 19.8455 58.7272 16.8092ZM53.6545 13.0001C55.4818 13.0001 56.9727 14.7092 56.9727 16.8092C56.9727 18.9092 55.4818 20.6183 53.6545 20.6183C51.8273 20.6183 50.3363 18.9092 50.3363 16.8092C50.3363 14.7092 51.8273 13.0001 53.6545 13.0001ZM30.0182 3.62735C31.8454 3.62735 33.3363 5.33644 33.3363 7.43644C33.3363 9.53644 31.8454 11.2455 30.0182 11.2455C28.1909 11.2455 26.7 9.53644 26.7 7.43644C26.7 5.33644 28.1909 3.62735 30.0182 3.62735ZM3.02725 18.0637C3.02725 15.9637 4.51816 14.2546 6.34543 14.2546C8.17271 14.2546 9.66362 15.9637 9.66362 18.0637C9.66362 20.1637 8.17271 21.8728 6.34543 21.8728C4.51816 21.8728 3.02725 20.1637 3.02725 18.0637ZM51.4454 50.8546C51.5909 51.3092 51.7909 51.7728 51.9909 52.2728C52.4545 53.3728 52.9272 54.5092 52.7727 55.4183C52.6636 56.0637 52.6636 56.0637 51.5818 56.0455L51.1454 56.0364C50.6909 56.0455 48.8636 56.0637 46.2272 56.1001C37.2091 56.2364 10.0363 56.6546 7.36361 56.0637C7.35452 56.0546 7.34543 56.0364 7.33634 56.0274C6.93634 55.3001 7.65452 53.2274 8.03634 52.1183C8.19998 51.6364 8.35452 51.2092 8.42725 50.891C8.50907 50.5637 8.79998 50.3364 9.12725 50.3364L50.7363 50.3546C51.0636 50.3546 51.3454 50.5546 51.4454 50.8546ZM15.0273 48.5728C14.2182 45.5092 13.4454 42.3092 12.5545 38.6274C11.4727 34.1728 10.2545 29.1273 8.65452 23.0183C9.16362 22.7364 9.61816 22.3546 10.0182 21.9092C13.8 26.0546 17.7454 30.1183 21.7818 34.0001C21.9454 34.1637 22.1636 34.2455 22.3909 34.2455C22.4818 34.2455 22.5636 34.2364 22.6545 34.2092C22.9636 34.1092 23.1909 33.8546 23.2545 33.5455C24.0091 29.8092 24.9091 26.0001 25.7818 22.3092C26.5363 19.1092 27.3091 15.8183 27.9909 12.5455C28.6091 12.8455 29.3 13.0092 30.0182 13.0092C30.1454 13.0092 30.2727 13.0001 30.3909 12.991L36.6909 33.6274C36.7818 33.9183 37.0182 34.1455 37.3182 34.2274C37.3909 34.2455 37.4636 34.2546 37.5363 34.2546C37.7636 34.2546 37.9909 34.1637 38.1545 34.0001C40.3273 31.8455 42.5091 29.6001 44.6182 27.4364C46.5909 25.4092 48.6273 23.3274 50.6545 21.3001C51.0636 21.6364 51.5273 21.9001 52.0182 22.091L45.2363 48.6092L15.0273 48.5728Z" fill="white"/>
<path d="M13.2272 29.9546C12.8999 29.9819 12.9908 33.0546 14.3908 36.5364C15.7726 40.0183 17.8181 42.3092 18.0726 42.1092C18.3726 41.9001 16.8635 39.391 15.5545 36.0728C14.2181 32.7546 13.5817 29.9001 13.2272 29.9546Z" fill="white"/>
<path d="M46.0818 32.5002C45.7272 32.5638 45.7091 33.9911 45.3636 35.6547C45.0454 37.3184 44.5272 38.6456 44.8272 38.8365C45.1 39.0275 46.2182 37.8184 46.6 35.8911C46.9818 33.9638 46.4091 32.4184 46.0818 32.5002Z" fill="white"/>
<path d="M41.7273 54.0546C44.2546 53.9001 46.191 53.1274 46.1 52.8001C46.0182 52.4546 44.0455 52.6456 41.6455 52.8001C39.2455 52.9637 37.2637 53.0183 37.2273 53.3728C37.1819 53.7092 39.2 54.2274 41.7273 54.0546Z" fill="white"/>
</svg>
