<svg width="24" height="24" viewBox="0 0 24 24" fill="none" xmlns="http://www.w3.org/2000/svg">
<path d="M19.4318 5.45186C18.0933 4.83772 16.658 4.38524 15.1573 4.12609C15.13 4.12109 15.1027 4.13358 15.0886 4.15858C14.904 4.4869 14.6995 4.91521 14.5563 5.25186C12.9422 5.01021 11.3364 5.01021 9.75542 5.25186C9.61221 4.90772 9.40031 4.4869 9.21489 4.15858C9.20081 4.13442 9.17351 4.12192 9.14618 4.12609C7.64631 4.38441 6.211 4.83689 4.87171 5.45186C4.86011 5.45686 4.85017 5.4652 4.84358 5.47603C2.12111 9.54334 1.37531 13.5107 1.74117 17.4288C1.74283 17.448 1.75359 17.4663 1.76849 17.478C3.5647 18.7971 5.30463 19.5979 7.01226 20.1287C7.03959 20.137 7.06854 20.127 7.08593 20.1045C7.48987 19.5529 7.84995 18.9713 8.15868 18.3596C8.1769 18.3238 8.15951 18.2813 8.12227 18.2671C7.55113 18.0505 7.00729 17.7863 6.48415 17.4863C6.44277 17.4622 6.43946 17.403 6.47753 17.3747C6.58761 17.2922 6.69773 17.2063 6.80285 17.1197C6.82187 17.1038 6.84837 17.1005 6.87073 17.1105C10.3075 18.6796 14.0282 18.6796 17.4245 17.1105C17.4468 17.0997 17.4733 17.103 17.4932 17.1188C17.5983 17.2055 17.7084 17.2922 17.8193 17.3747C17.8574 17.403 17.8549 17.4622 17.8135 17.4863C17.2904 17.7921 16.7466 18.0505 16.1746 18.2663C16.1373 18.2805 16.1208 18.3238 16.139 18.3596C16.4544 18.9704 16.8144 19.5521 17.2109 20.1037C17.2275 20.127 17.2573 20.137 17.2846 20.1287C19.0005 19.5979 20.7404 18.7971 22.5366 17.478C22.5524 17.4663 22.5623 17.4488 22.564 17.4297C23.0018 12.8999 21.8306 8.96504 19.4591 5.47685C19.4533 5.4652 19.4434 5.45686 19.4318 5.45186ZM8.67191 15.0431C7.6372 15.0431 6.78463 14.0932 6.78463 12.9265C6.78463 11.7599 7.62067 10.81 8.67191 10.81C9.7314 10.81 10.5757 11.7682 10.5592 12.9265C10.5592 14.0932 9.72312 15.0431 8.67191 15.0431ZM15.6498 15.0431C14.6151 15.0431 13.7625 14.0932 13.7625 12.9265C13.7625 11.7599 14.5986 10.81 15.6498 10.81C16.7093 10.81 17.5536 11.7682 17.5371 12.9265C17.5371 14.0932 16.7093 15.0431 15.6498 15.0431Z" fill="white"/>
</svg>
