<svg width="24" height="24" viewBox="0 0 24 24" fill="none" xmlns="http://www.w3.org/2000/svg">
<path d="M7.33333 1.5C4.11217 1.5 1.5 4.11217 1.5 7.33333V16.6667C1.5 19.8878 4.11217 22.5 7.33333 22.5H16.6667C19.8878 22.5 22.5 19.8878 22.5 16.6667V7.33333C22.5 4.11217 19.8878 1.5 16.6667 1.5H7.33333ZM19 3.83333C19.644 3.83333 20.1667 4.356 20.1667 5C20.1667 5.644 19.644 6.16667 19 6.16667C18.356 6.16667 17.8333 5.644 17.8333 5C17.8333 4.356 18.356 3.83333 19 3.83333ZM12 6.16667C15.2212 6.16667 17.8333 8.77883 17.8333 12C17.8333 15.2212 15.2212 17.8333 12 17.8333C8.77883 17.8333 6.16667 15.2212 6.16667 12C6.16667 8.77883 8.77883 6.16667 12 6.16667ZM12 8.5C11.0717 8.5 10.1815 8.86875 9.52513 9.52513C8.86875 10.1815 8.5 11.0717 8.5 12C8.5 12.9283 8.86875 13.8185 9.52513 14.4749C10.1815 15.1313 11.0717 15.5 12 15.5C12.9283 15.5 13.8185 15.1313 14.4749 14.4749C15.1313 13.8185 15.5 12.9283 15.5 12C15.5 11.0717 15.1313 10.1815 14.4749 9.52513C13.8185 8.86875 12.9283 8.5 12 8.5Z" fill="white"/>
</svg>
