<svg width="60" height="60" viewBox="0 0 60 60" fill="none" xmlns="http://www.w3.org/2000/svg">
<path d="M35.4635 43.2001C35.6726 40.8365 33.9363 38.6728 31.8181 36.5001C33.1817 35.2274 34.4908 33.5365 34.5181 31.2637C34.5454 28.4456 32.209 25.8819 29.3999 25.6546C26.8999 25.4456 24.909 27.0365 23.909 28.9637C23.4726 28.5001 23.1181 27.9546 22.7726 27.4183C21.7181 25.7819 20.409 23.7456 16.6454 25.1001C14.5908 25.8365 12.0817 28.3365 12.9181 30.9183C13.2363 31.9001 14.0181 32.5092 14.7181 33.0456C15.5363 33.6819 15.9999 34.0728 15.9817 34.7274C15.9272 36.3092 14.4181 37.7637 12.7363 37.8456C11.8726 37.891 11.4363 37.4456 10.7363 36.6637C10.1817 36.0365 9.54535 35.3274 8.52717 35.0092C6.02717 34.2274 3.11808 36.9456 2.21808 39.1728C1.12717 41.8546 3.0999 43.291 4.53626 44.3365C5.67263 45.1637 6.40899 45.7546 6.52717 46.5637C5.52717 47.9365 4.63626 49.3274 4.29081 50.9546C3.91808 52.7456 4.35445 55.0819 6.19081 56.2365C7.5999 57.1274 9.61808 57.0546 11.3181 56.0637C12.3726 55.4456 13.2181 54.5819 13.9544 53.7092C15.9454 56.5456 18.0908 58.0274 20.2272 58.0274H20.3908C22.2272 57.9637 23.8726 56.8092 25.2726 54.591C26.1726 55.5365 27.2454 56.5001 28.5908 57.0001C31.7363 58.1728 34.0635 56.8819 34.9817 55.0637C35.9181 53.2274 35.5908 50.3728 32.6726 48.4637C32.5726 48.4001 32.509 48.3546 32.4726 48.3183C32.4544 48.1456 32.409 48.0001 32.3454 47.8546C34.3181 46.3001 35.3181 44.8092 35.4635 43.2001ZM30.4817 47.0365C30.2363 47.2092 30.0908 47.491 30.109 47.8001C30.1181 48.1001 30.2908 48.3728 30.5454 48.5274C30.6363 48.5819 30.6999 48.6183 30.7454 48.6456C30.809 49.1546 31.0999 49.5183 31.7181 49.9274C33.7363 51.2546 34.0363 53.0546 33.4272 54.2546C32.909 55.2819 31.4908 56.191 29.2181 55.3365C27.8454 54.8274 26.7454 53.591 25.7817 52.5092C25.5908 52.291 25.309 52.191 25.0181 52.2183C24.7363 52.2546 24.4817 52.4274 24.3454 52.6819C23.509 54.2728 22.1363 56.1819 20.3363 56.2456C18.609 56.3001 16.6363 54.7092 14.7908 51.7456C14.6363 51.5001 14.3817 51.3456 14.0999 51.3365C14.0817 51.3365 14.0635 51.3365 14.0454 51.3365C13.7817 51.3365 13.5272 51.4546 13.3635 51.6637C12.4908 52.7456 11.5908 53.8546 10.4454 54.5274C9.58172 55.0365 8.19081 55.391 7.14535 54.7365C6.03626 54.0365 5.79081 52.4637 6.02717 51.3092C6.31808 49.9183 7.15445 48.691 8.14535 47.3456C8.25445 47.2001 8.30899 47.0183 8.31808 46.8365C8.33626 44.9183 6.80899 43.8092 5.58172 42.9092C3.91808 41.691 3.33626 41.1183 3.85444 39.8274C4.47263 38.3092 6.62717 36.2546 7.9999 36.6819C8.55445 36.8546 8.95445 37.3092 9.41808 37.8274C10.1544 38.6546 11.0726 39.6728 12.8181 39.591C15.3999 39.4637 17.6544 37.2637 17.7363 34.7728C17.7908 33.191 16.6817 32.3274 15.7999 31.6456C15.2635 31.2274 14.7454 30.8274 14.5999 30.3637C14.1272 28.9092 15.8544 27.2456 17.2544 26.7456C19.6999 25.8637 20.2635 26.7546 21.2999 28.3637C21.909 29.3183 22.609 30.4001 23.8181 31.1456C24.0544 31.291 24.3454 31.3183 24.5999 31.2183C24.8544 31.1183 25.0544 30.9001 25.1272 30.6365C25.6181 28.9001 27.1999 27.2365 29.2635 27.4001C31.1454 27.5546 32.7817 29.3456 32.7635 31.2365C32.7454 32.7637 31.8908 34.1637 29.9817 35.7728C29.7908 35.9274 29.6817 36.1637 29.6726 36.4092C29.6635 36.6546 29.7544 36.891 29.9272 37.0728C32.3726 39.5183 33.8635 41.3637 33.7181 43.0365C33.5908 44.3001 32.5363 45.6092 30.4817 47.0365Z" fill="white"/>
<path d="M55.1544 25.3546C56.2271 24.7637 57.0998 23.8001 57.5726 22.6183C59.0635 18.8637 57.0635 17.091 55.2998 15.5183C54.8271 15.1001 54.3453 14.6728 53.9089 14.2001C55.7998 12.9092 57.318 10.3546 56.8726 8.09098C56.3635 5.54553 53.9362 3.55462 51.3362 3.55462C51.3271 3.55462 51.318 3.55462 51.3089 3.55462C49.2635 3.56371 47.3271 4.81826 46.3544 6.59098C46.2726 6.49098 46.1907 6.39099 46.1089 6.29098C44.3271 4.09098 42.8635 2.3728 41.5362 2.06371C39.2362 1.51826 37.4362 3.55462 35.9816 5.18189C35.818 5.3728 35.6544 5.55462 35.4907 5.72735C34.4907 4.45462 33.0726 3.30008 31.7726 2.73644C29.3635 1.70008 26.8907 3.10917 25.6726 5.02735C24.3453 7.13644 24.5998 9.53644 26.2907 11.0092C27.1362 11.7455 27.2726 12.1364 27.2816 12.3001C27.2998 12.6455 26.7998 13.1637 26.218 13.7728C26.0362 13.9546 25.8544 14.1546 25.6635 14.3637C24.4453 15.7001 24.0453 17.0546 24.4726 18.391C24.8816 19.6728 25.9544 20.7183 27.0907 21.8364C27.4726 22.2092 27.8544 22.5819 28.2271 22.9819C28.5816 23.3637 29.118 23.9364 29.8998 24.1092C31.3998 24.4455 32.1089 23.391 32.5362 22.7546C32.6998 22.5183 32.8453 22.291 33.0089 22.1546C33.8453 21.4183 35.0907 21.0728 36.1816 21.2728C37.6635 21.5364 38.9544 22.8001 39.2453 24.2728C39.618 26.1092 38.6271 27.2092 37.7362 27.8092C37.518 27.9546 37.2726 28.0364 37.0089 28.1274C36.5089 28.3001 35.3271 28.7001 35.6362 30.191C35.7726 30.8455 36.5362 31.6183 38.3089 33.2092C38.5907 33.4637 38.8271 33.6728 39.018 33.8637C39.8635 34.7183 41.0816 35.9364 42.6271 35.9364C42.8816 35.9364 43.1453 35.9001 43.418 35.8274C43.818 35.7183 44.1726 35.3819 45.6453 33.8455C46.2271 33.2364 47.1089 32.3183 47.6635 31.8274C48.3089 32.6546 49.0453 33.5092 49.9544 34.1728C51.318 35.1546 52.8816 35.5183 54.2453 35.1637C56.4362 34.591 57.918 32.1001 57.5453 29.6092C57.3089 27.8364 56.2726 26.4455 55.1544 25.3546ZM53.8271 33.491C52.9816 33.7092 51.9362 33.4455 51.0089 32.7728C50.0907 32.1092 49.3453 31.1364 48.6362 30.2001C48.4816 29.991 48.1726 29.8364 47.918 29.8183C47.2271 29.7728 46.5998 30.3546 44.3998 32.6546C43.8635 33.2092 43.1544 33.9546 42.8816 34.1728C42.0544 34.3183 41.2453 33.6001 40.2271 32.5819C40.0907 32.4455 39.8271 32.2092 39.5089 31.9183C39.018 31.4728 37.7726 30.3546 37.4271 29.8819C37.4816 29.8637 37.5453 29.8455 37.5998 29.8274C37.9089 29.7274 38.3271 29.5819 38.7453 29.3001C40.6089 28.0455 41.4271 26.1001 40.9998 23.9546C40.5544 21.7637 38.718 19.9637 36.518 19.5637C34.8816 19.2637 33.1089 19.7637 31.8635 20.8637C31.5362 21.1546 31.2998 21.491 31.0998 21.8001C30.6453 22.4728 30.5726 22.4819 30.2998 22.4183C30.0544 22.3637 29.7635 22.0546 29.5362 21.8092C29.1544 21.391 28.7453 21.0001 28.3453 20.6092C27.3726 19.6546 26.4453 18.7546 26.1726 17.891C26.018 17.4001 25.9635 16.7001 26.9816 15.5819C27.1635 15.3819 27.3453 15.2001 27.5089 15.0183C28.3635 14.1183 29.1089 13.3455 29.0544 12.2546C29.018 11.4273 28.5271 10.6364 27.4635 9.71826C26.218 8.63644 26.4998 7.08189 27.1816 6.00008C27.9907 4.70917 29.5998 3.74553 31.0907 4.38189C32.3544 4.92735 33.8726 6.30008 34.6271 7.5728C34.7635 7.80008 34.9907 7.95462 35.2544 7.99098C35.518 8.02735 35.7816 7.95462 35.9726 7.7728C36.4089 7.38189 36.8453 6.89099 37.3089 6.36371C38.5089 5.01826 39.8635 3.48189 41.1362 3.79098C41.9816 3.99098 43.7726 6.21826 44.7453 7.40917C45.2453 8.03644 45.6816 8.5728 46.0271 8.92735C46.2544 9.16371 46.5907 9.25462 46.9089 9.16371C47.2271 9.0728 47.4635 8.80917 47.518 8.48189C47.8453 6.75462 49.5453 5.33644 51.3089 5.32735H51.3271C53.0816 5.32735 54.7907 6.71826 55.1362 8.44553C55.4816 10.1819 53.8271 12.4728 52.218 13.1364C51.9726 13.2364 51.7816 13.4455 51.7089 13.7092C51.6362 13.9637 51.6816 14.2455 51.8362 14.4637C52.518 15.4273 53.3726 16.1819 54.118 16.8455C55.8271 18.3637 56.9544 19.3637 55.918 21.9728C55.4726 23.1092 54.4362 23.9728 53.2907 24.1728C52.9544 24.2364 52.6816 24.491 52.5907 24.8183C52.5089 25.1546 52.618 25.5001 52.8907 25.7183C54.1089 26.7092 55.5453 28.0728 55.818 29.9001C56.0453 31.3274 55.2907 33.1092 53.8271 33.491Z" fill="white"/>
<path d="M22.3999 47.6C20.4635 49.7909 18.5544 51.2727 18.7544 51.5818C18.9181 51.8727 21.2544 50.7818 23.3363 48.4363C25.4272 46.1091 26.2454 43.6545 25.9454 43.5272C25.609 43.3727 24.3544 45.4272 22.3999 47.6Z" fill="white"/>
<path d="M46.5635 11.8001C46.6726 11.6729 46.309 11.1183 45.4908 10.4274C44.6908 9.75468 43.3544 8.90922 41.6272 8.70922C39.8726 8.51831 38.3181 9.21831 37.5181 10.0183C36.6908 10.8365 36.609 11.591 36.7544 11.6365C36.9272 11.7183 37.2908 11.2001 38.0726 10.7092C38.8453 10.2183 40.109 9.80013 41.4908 9.95468C42.8908 10.1092 44.1181 10.7001 44.9908 11.1638C45.8817 11.6274 46.4544 11.9365 46.5635 11.8001Z" fill="white"/>
<path d="M47.9818 25.8183C46.1455 27.5183 44.6637 28.9456 44.8727 29.2274C45.0727 29.5001 46.9364 28.491 48.8364 26.7365C50.7364 24.9819 51.9 23.2092 51.6364 22.991C51.3727 22.7638 49.8273 24.1183 47.9818 25.8183Z" fill="white"/>
</svg>
