<svg width="24" height="24" viewBox="0 0 24 24" fill="none" xmlns="http://www.w3.org/2000/svg">
<path d="M7.42273 6C10.6938 6 13.3453 8.67 13.3453 11.9634C13.3453 15.2568 10.6936 17.9266 7.42273 17.9266C4.15189 17.9266 1.5 15.2568 1.5 11.9634C1.5 8.67 4.15169 6 7.42273 6ZM16.8809 6.34932C18.5164 6.34932 19.8423 8.86257 19.8423 11.9634H19.8425C19.8425 15.0634 18.5166 17.5774 16.8811 17.5774C15.2456 17.5774 13.9197 15.0634 13.9197 11.9634C13.9197 8.86337 15.2454 6.34932 16.8809 6.34932ZM21.4585 6.93407C22.0336 6.93407 22.5 9.18573 22.5 11.9634C22.5 14.7402 22.0338 16.9927 21.4585 16.9927C20.8832 16.9927 20.4172 14.7408 20.4172 11.9634C20.4172 9.18593 20.8834 6.93407 21.4585 6.93407Z" fill="white"/>
</svg>
