<svg width="120" height="120" viewBox="0 0 120 120" fill="none" xmlns="http://www.w3.org/2000/svg">
<g clip-path="url(#clip0_1058_3091)">
<path d="M60 120C93.1371 120 120 93.1371 120 60C120 26.8629 93.1371 0 60 0C26.8629 0 0 26.8629 0 60C0 93.1371 26.8629 120 60 120Z" fill="#FFCD00"/>
<path fill-rule="evenodd" clip-rule="evenodd" d="M60 120C56.0603 120 52.1592 119.224 48.5193 117.717C44.8795 116.209 41.5723 113.999 38.7865 111.214C36.0007 108.428 33.7909 105.121 32.2833 101.481C30.7757 97.8408 29.9999 93.9397 30 90C29.9999 86.0603 30.7757 82.1592 32.2833 78.5193C33.7909 74.8795 36.0007 71.5723 38.7865 68.7865C41.5723 66.0007 44.8795 63.7909 48.5193 62.2833C52.1592 60.7757 56.0603 59.9999 60 60H120C120 75.913 113.679 91.1742 102.426 102.426C91.1742 113.679 75.913 120 60 120Z" fill="#FFB400"/>
<path fill-rule="evenodd" clip-rule="evenodd" d="M60 2.10973e-08C63.9397 -0.000147726 67.8408 0.775724 71.4807 2.28331C75.1205 3.7909 78.4277 6.00068 81.2135 8.78647C83.9993 11.5723 86.2091 14.8795 87.7167 18.5193C89.2243 22.1592 90.0001 26.0603 90 30C90.0001 33.9397 89.2243 37.8408 87.7167 41.4807C86.2091 45.1205 83.9993 48.4277 81.2135 51.2135C78.4277 53.9993 75.1205 56.2091 71.4807 57.7167C67.8408 59.2243 63.9397 60.0001 60 60H0C0 44.087 6.32141 28.8258 17.5736 17.5736C28.8258 6.32141 44.087 2.10973e-08 60 2.10973e-08V2.10973e-08Z" fill="#FFEB00"/>
<path d="M37.5 52.5C41.6421 52.5 45 47.4632 45 41.25C45 35.0368 41.6421 30 37.5 30C33.3579 30 30 35.0368 30 41.25C30 47.4632 33.3579 52.5 37.5 52.5Z" fill="#46321E"/>
<path d="M82.5 52.5C86.6421 52.5 90 47.4632 90 41.25C90 35.0368 86.6421 30 82.5 30C78.3579 30 75 35.0368 75 41.25C75 47.4632 78.3579 52.5 82.5 52.5Z" fill="#46321E"/>
<path fill-rule="evenodd" clip-rule="evenodd" d="M33.4913 71.5106C36.9712 74.9941 41.1036 77.7577 45.6521 79.6433C50.2007 81.5289 55.0763 82.4996 60.0002 82.5C64.9241 82.5003 69.7998 81.5303 74.3486 79.6453C78.8974 77.7603 83.0302 74.9974 86.5107 71.5144L91.8188 76.8244C87.6448 81.0081 82.6852 84.3259 77.225 86.587C71.7649 88.8481 65.9117 90.008 60.0019 90H59.9982C54.088 90.0077 48.2347 88.8473 42.7744 86.5856C37.3142 84.3238 32.3548 81.0053 28.1813 76.8206L33.4913 71.5106Z" fill="#46321E"/>
</g>
<defs>
<clipPath id="clip0_1058_3091">
<rect width="120" height="120" fill="white"/>
</clipPath>
</defs>
</svg>
