<svg width="24" height="24" viewBox="0 0 24 24" fill="none" xmlns="http://www.w3.org/2000/svg">
<path d="M12 1.5C6.2019 1.5 1.5 6.2019 1.5 12C1.5 17.7981 6.2019 22.5 12 22.5C17.7981 22.5 22.5 17.7981 22.5 12C22.5 6.2019 17.8002 1.5 12 1.5ZM6.6807 12.3528L6.7248 12.2814L9.4569 8.0079C9.4968 7.947 9.5913 7.9533 9.6207 8.0205C10.0764 9.0432 10.4712 10.3158 10.2864 11.1075C10.2087 11.433 9.9924 11.874 9.7488 12.2814C9.7173 12.3402 9.6837 12.399 9.6459 12.4557C9.6291 12.4809 9.5997 12.4956 9.5682 12.4956H6.7605C6.6849 12.4956 6.6408 12.4137 6.6807 12.3528ZM18.8544 13.8228C18.8544 13.8627 18.8313 13.8963 18.7977 13.911C18.5856 14.0013 17.8611 14.3352 17.5608 14.7531C16.7922 15.822 16.2063 17.3508 14.8938 17.3508H9.4212C7.4808 17.3508 5.91 15.7737 5.91 13.827V13.764C5.91 13.7136 5.952 13.6716 6.0045 13.6716H9.0537C9.1146 13.6716 9.1587 13.7262 9.1545 13.7871C9.1314 13.9845 9.1692 14.1882 9.2637 14.373C9.4443 14.7405 9.8202 14.9694 10.2255 14.9694H11.7354V13.7913H10.2423C10.1667 13.7913 10.1205 13.7031 10.1646 13.6401C10.1814 13.6149 10.1982 13.5897 10.2192 13.5603C10.3599 13.3587 10.5615 13.0479 10.7631 12.693C10.8996 12.4536 11.0319 12.1974 11.139 11.9412C11.16 11.895 11.1768 11.8467 11.1957 11.8005C11.2251 11.7186 11.2545 11.6409 11.2755 11.5653C11.2965 11.5002 11.3154 11.433 11.3322 11.37C11.3826 11.1516 11.4036 10.9206 11.4036 10.6812C11.4036 10.5867 11.3994 10.488 11.391 10.3956C11.3868 10.2927 11.3742 10.1898 11.3616 10.0869C11.3532 9.9966 11.3364 9.9063 11.3196 9.8139C11.2965 9.6774 11.2671 9.5409 11.2335 9.4044L11.2209 9.3519C11.1957 9.2574 11.1726 9.1692 11.1432 9.0747C11.0571 8.7807 10.9605 8.493 10.8555 8.2242C10.8177 8.1171 10.7757 8.0142 10.7316 7.9134C10.6686 7.758 10.6035 7.6173 10.5447 7.485C10.5132 7.4241 10.488 7.3695 10.4628 7.3128C10.4334 7.2498 10.404 7.1868 10.3725 7.1259C10.3515 7.0797 10.3263 7.0356 10.3095 6.9936L10.1247 6.6534C10.0995 6.6072 10.1415 6.5505 10.1919 6.5652L11.3469 6.8781H11.3511C11.3532 6.8781 11.3532 6.8781 11.3553 6.8781L11.5065 6.9222L11.6745 6.9684L11.7354 6.9852V6.3006C11.7354 5.9688 12 5.7 12.3297 5.7C12.4935 5.7 12.6426 5.7672 12.7476 5.8764C12.8547 5.9856 12.9219 6.1347 12.9219 6.3006V7.3191L13.0458 7.3527C13.0542 7.3569 13.0647 7.3611 13.0731 7.3674C13.1025 7.3884 13.1466 7.422 13.2012 7.464C13.2453 7.4976 13.2915 7.5396 13.3461 7.5837C13.4574 7.674 13.5918 7.7895 13.7367 7.9218C13.7745 7.9554 13.8123 7.989 13.848 8.0247C14.0349 8.199 14.2449 8.4027 14.4465 8.6295C14.5032 8.6946 14.5578 8.7576 14.6145 8.8269C14.6691 8.8962 14.73 8.9634 14.7804 9.0306C14.8497 9.1209 14.9211 9.2154 14.9862 9.3141C15.0156 9.3603 15.0513 9.4086 15.0786 9.4548C15.1626 9.5787 15.234 9.7068 15.3033 9.8349C15.3327 9.8937 15.3621 9.9588 15.3873 10.0218C15.465 10.194 15.5259 10.3683 15.5637 10.5447C15.5763 10.5825 15.5847 10.6224 15.5889 10.6602V10.6686C15.6015 10.719 15.6057 10.7736 15.6099 10.8303C15.6267 11.0088 15.6183 11.1894 15.5805 11.37C15.5637 11.4456 15.5427 11.517 15.5175 11.5947C15.4902 11.6682 15.465 11.7438 15.4314 11.8173C15.3663 11.9664 15.2907 12.1176 15.2004 12.2562C15.171 12.3087 15.1353 12.3633 15.1017 12.4158C15.0639 12.4704 15.024 12.5229 14.9904 12.5733C14.9421 12.6384 14.8917 12.7056 14.8392 12.7665C14.793 12.8295 14.7468 12.8925 14.6943 12.9492C14.6229 13.0353 14.5536 13.1151 14.4801 13.1928C14.4381 13.2432 14.3919 13.2957 14.3436 13.3419C14.2974 13.3944 14.2491 13.4406 14.2071 13.4826C14.1336 13.5561 14.0748 13.6107 14.0244 13.659L13.9047 13.7661C13.8879 13.7829 13.8648 13.7913 13.8417 13.7913H12.9219V14.9694H14.079C14.3373 14.9694 14.583 14.8791 14.7825 14.709C14.8497 14.6502 15.1458 14.394 15.4965 14.0076C15.5091 13.9929 15.5238 13.9845 15.5406 13.9803L18.7347 13.0563C18.7956 13.0395 18.8544 13.0836 18.8544 13.1466V13.8228Z" fill="white"/>
</svg>
