<svg width="24" height="24" viewBox="0 0 24 24" fill="none" xmlns="http://www.w3.org/2000/svg">
<g clip-path="url(#clip0_1519_272)">
<path fill-rule="evenodd" clip-rule="evenodd" d="M4.8 0H19.2C21.851 0 24 2.14903 24 4.8V19.2C24 21.851 21.851 24 19.2 24H4.8C2.14903 24 0 21.851 0 19.2V4.8C0 2.14903 2.14903 0 4.8 0ZM17.989 10.0133C17.989 11.1503 17.3164 11.7157 16.5604 11.9122C17.4652 12.18 18.12 12.9122 18.12 14.0729V16.2038H14.6676V14.18C14.6676 13.561 14.2985 13.311 13.6676 13.311H9.57231V16.2038H6.11997V7.67999H14.3223C16.3818 7.67999 17.989 8.12051 17.989 10.0133ZM9.57231 11.0134H13.7271C14.1795 11.0134 14.4533 10.9538 14.4533 10.5967C14.4533 10.2395 14.1795 10.18 13.7271 10.18H9.57231V11.0134Z" fill="white"/>
</g>
<defs>
<clipPath id="clip0_1519_272">
<rect width="24" height="24" fill="white"/>
</clipPath>
</defs>
</svg>
