<svg width="60" height="60" viewBox="0 0 60 60" fill="none" xmlns="http://www.w3.org/2000/svg">
<path d="M57.491 34.691C57.5001 34.5364 57.4637 34.3819 57.391 34.2364C56.4819 30.3455 54.4819 28.0637 51.5819 27.791C49.591 27.6001 47.8819 28.3819 46.6455 30.0455C45.6728 31.3455 45.0546 33.1637 44.7091 35.1455H42.7091C43.0273 30.2364 42.5728 24.9273 41.2728 18.5182C40.8637 16.5091 39.7182 12.4728 37.8819 8.93642C37.8546 8.87278 37.8273 8.81823 37.791 8.76369C36.4455 6.21823 34.7364 3.94551 32.6728 2.90914C31.0819 2.10914 29.4364 2.10005 27.8001 2.88187C25.7001 3.87278 24.3091 5.94551 23.2273 7.83642C19.2728 14.7364 17.2455 23.2001 17.3728 32.3273C17.391 33.4819 17.4182 34.6182 17.4637 35.7364H15.3455C14.6273 30.9364 12.5001 28.091 9.2546 27.791C7.26369 27.6001 5.5546 28.3819 4.31823 30.0455C1.41823 33.9455 1.60005 42.4637 3.13642 46.3001C4.01823 48.491 5.31823 49.9728 6.91823 50.591C7.57278 50.8455 8.22732 50.9728 8.8546 50.9728C9.77278 50.9728 10.6546 50.7001 11.4455 50.1546C12.0455 49.7455 12.5728 49.2001 13.0273 48.5637C13.0546 48.5637 13.0819 48.5819 13.1182 48.5819H20.2364C20.3091 48.5819 20.3728 48.5546 20.4364 48.5455C21.3455 50.1546 22.5091 51.6637 24.0455 53.0546C24.8546 53.791 25.8001 54.3273 26.8455 54.691C27.4182 56.4364 28.6182 57.6273 29.9546 57.7001H30.0637C30.7001 57.7001 32.0273 57.4182 32.8001 55.2637C32.8546 55.1182 32.9001 54.9182 32.9546 54.691C35.0637 54.0455 36.9091 52.791 38.1001 51.1182C38.7182 50.2455 39.2546 49.3273 39.7182 48.391H46.591C47.3364 49.4455 48.2364 50.2001 49.2546 50.591C49.9091 50.8455 50.5637 50.9728 51.191 50.9728C52.1091 50.9728 52.9819 50.7001 53.7819 50.1546C56.8001 48.091 57.9455 42.691 57.9546 39.7637C57.9546 37.8637 57.8001 36.1728 57.491 34.691ZM48.0091 31.0546C48.8091 29.9819 49.791 29.4637 51.0091 29.4637C51.1455 29.4637 51.2819 29.4728 51.4273 29.4819C53.8364 29.7001 55.0546 31.891 55.6637 34.3091C52.991 36.3001 49.291 36.3819 46.5546 34.5001C46.8728 33.1546 47.3455 31.9546 48.0091 31.0546ZM28.5364 4.41823C29.1182 4.14551 29.6819 4.00914 30.2364 4.00914C30.8001 4.00914 31.3637 4.14551 31.9182 4.42732C33.4819 5.20914 34.891 6.98187 36.0728 9.10914C34.591 10.6728 32.6364 11.591 30.7455 11.5455C28.6001 11.5091 26.4273 10.2455 24.9546 8.24551C25.8728 6.71823 27.0001 5.14551 28.5364 4.41823ZM5.69096 31.0546C6.49096 29.9819 7.47278 29.4637 8.69096 29.4637C8.82733 29.4637 8.96369 29.4728 9.10914 29.4819C11.4273 29.7001 12.6455 31.7273 13.2728 34.0364C12.0455 35.3637 10.3455 36.1455 8.66369 36.1182C7.09096 36.1001 5.50005 35.3728 4.32732 34.1637C4.62733 32.9546 5.07278 31.8728 5.69096 31.0546ZM10.491 48.7455C9.61823 49.3455 8.64551 49.4273 7.53642 49.0001C6.09096 48.4455 5.20914 46.8728 4.71823 45.6637C3.84551 43.5001 3.4546 39.5546 3.93642 36.091C5.30005 37.1728 6.93642 37.791 8.62733 37.8091H8.72733C10.5091 37.8091 12.2455 37.1455 13.6728 35.9819C13.8819 37.4182 13.9364 38.8001 13.9273 39.7546C13.9182 42.4455 12.8182 47.1637 10.491 48.7455ZM14.0182 46.8819C15.1455 44.5091 15.6182 41.6273 15.6273 39.7637C15.6273 38.9455 15.6001 38.1728 15.5455 37.4364H17.5728C17.8091 40.8273 18.3637 44.0001 19.6273 46.891H14.0182V46.8819ZM31.2091 54.6819C31.0637 55.091 30.691 56.0091 30.0455 55.991C29.4637 55.9637 28.6728 55.1273 28.3455 53.791C27.8728 51.8455 27.0455 42.8637 28.7182 40.9546C28.9001 40.7455 29.0455 40.7364 29.1637 40.7455C29.5001 40.7819 29.8273 41.0455 30.1364 41.5364C31.9455 44.4273 31.8728 52.8091 31.2091 54.6819ZM36.7182 50.1273C35.9001 51.2819 34.6455 52.2091 33.2091 52.8001C33.5091 49.2728 33.291 43.4001 31.5728 40.6546C30.9728 39.7001 30.2273 39.1728 29.3455 39.0728C28.6091 38.991 27.9546 39.2637 27.4455 39.8455C25.4273 42.1455 26.0273 49.4091 26.4546 52.6546C26.0001 52.4182 25.5728 52.1455 25.191 51.8001C19.7091 46.8001 19.1819 40.0091 19.0728 32.3001C18.9546 24.0001 20.6819 16.2728 24.0546 9.8546C25.8182 11.9273 28.2728 13.2001 30.7091 13.2455H30.8546C33.0001 13.2455 35.1637 12.3091 36.8819 10.691C38.2001 13.4819 39.1455 16.5819 39.6091 18.8546C40.9455 25.4546 41.3819 30.8455 40.9728 35.8182C40.6182 40.2001 39.8091 45.791 36.7182 50.1273ZM40.4637 46.691C41.7637 43.3819 42.3091 39.891 42.591 36.8455H44.491C44.1546 40.3637 44.591 44.1001 45.4728 46.3001C45.5273 46.4364 45.591 46.5637 45.6455 46.691H40.4637ZM52.8182 48.7455C51.9455 49.3455 50.9728 49.4273 49.8637 49.0001C48.4182 48.4455 47.5364 46.8819 47.0455 45.6637C46.191 43.5364 45.791 39.7091 46.2273 36.291C47.6819 37.1273 49.3182 37.5546 50.9546 37.5546C52.7182 37.5546 54.4728 37.0637 56.0091 36.1091C56.2091 37.5001 56.2455 38.8182 56.2455 39.7455C56.2455 42.4455 55.1455 47.1637 52.8182 48.7455Z" fill="white"/>
<path d="M29.6728 18.5273C26.2819 18.5273 23.5273 21.5819 23.5273 25.3455C23.5273 29.1092 26.2819 32.1637 29.6728 32.1637C33.0637 32.1637 35.8183 29.1092 35.8183 25.3455C35.8183 21.5819 33.0637 18.5273 29.6728 18.5273ZM29.6728 30.4546C27.2183 30.4546 25.2273 28.1637 25.2273 25.3364C25.2273 22.5092 27.2183 20.2183 29.6728 20.2183C32.1273 20.2183 34.1183 22.5092 34.1183 25.3364C34.1183 28.1637 32.1273 30.4546 29.6728 30.4546Z" fill="white"/>
<path d="M5.51824 39.3636C5.3637 39.3364 5.11824 39.8182 5.03642 40.6546C4.94552 41.4909 5.07279 42.6909 5.57279 43.8818C6.08188 45.0727 6.8637 45.9909 7.52733 46.5091C8.19097 47.0273 8.70915 47.1818 8.80006 47.0546C9.00006 46.7727 7.55461 45.5 6.69097 43.4091C5.78188 41.3364 5.8637 39.4182 5.51824 39.3636Z" fill="white"/>
<path d="M55.1546 40.8091C54.9819 40.0637 54.7091 39.6546 54.5546 39.691C54.2182 39.7728 54.4273 41.5 53.9091 43.491C53.4364 45.491 52.4364 46.9091 52.7 47.1455C52.8182 47.2546 53.2455 47.0182 53.7546 46.4364C54.2546 45.8637 54.8 44.9182 55.091 43.7819C55.3637 42.6364 55.3273 41.5546 55.1546 40.8091Z" fill="white"/>
<path d="M38.5637 28.209C38.2183 28.2363 38.2183 31.5272 37.7546 35.5363C37.3092 39.5454 36.5546 42.7545 36.891 42.8545C37.191 42.9636 38.491 39.809 38.9546 35.6727C39.4365 31.5363 38.8728 28.1727 38.5637 28.209Z" fill="white"/>
<path d="M23.6727 14.6274C23.3909 14.4638 22.5455 15.4456 22.2273 16.9456C21.9 18.4456 22.2546 19.691 22.5818 19.6547C22.9182 19.6365 23.1182 18.5092 23.4091 17.2001C23.6818 15.891 23.9727 14.791 23.6727 14.6274Z" fill="white"/>
</svg>
