<svg width="24" height="24" viewBox="0 0 24 24" fill="none" xmlns="http://www.w3.org/2000/svg">
<path d="M20.3501 7.43232C20.3629 7.61459 20.3629 7.79685 20.3629 7.9808C20.3629 13.5858 16.0289 20.05 8.10414 20.05V20.0466C5.76313 20.05 3.47075 19.3898 1.5 18.145C1.8404 18.1853 2.18251 18.2055 2.52547 18.2063C4.46551 18.208 6.35009 17.5671 7.87636 16.387C6.03272 16.3526 4.41603 15.1691 3.85125 13.4413C4.49707 13.5639 5.16252 13.5387 5.7964 13.3682C3.78641 12.9684 2.34034 11.2297 2.34034 9.21048C2.34034 9.19201 2.34034 9.17437 2.34034 9.15673C2.93924 9.48515 3.60981 9.66742 4.29573 9.68757C2.40262 8.44193 1.81907 5.96241 2.96228 4.02381C5.14973 6.67384 8.37715 8.28486 11.8417 8.45537C11.4945 6.98211 11.9689 5.43828 13.0882 4.40263C14.8235 2.79665 17.5527 2.87896 19.1839 4.58658C20.1488 4.39927 21.0736 4.05069 21.9199 3.5568C21.5982 4.5387 20.9251 5.37277 20.0259 5.90277C20.8799 5.80366 21.7143 5.57855 22.5 5.23502C21.9216 6.0884 21.193 6.83175 20.3501 7.43232Z" fill="white"/>
</svg>
