<svg width="60" height="60" viewBox="0 0 60 60" fill="none" xmlns="http://www.w3.org/2000/svg">
<path d="M48.3727 16.8637C47.3182 13.291 44.2182 13.3273 41.7364 13.3546C40.2636 13.3728 38.8818 13.391 37.8727 12.8273C36.2273 11.9092 35.5545 9.96371 34.9545 7.8728C34.2545 5.44553 32.7273 2.72735 30.5364 2.34553C29.0909 2.10008 27.7 2.88189 26.4182 4.6728C25.6818 5.70008 25.3182 7.02735 24.9636 8.30008C24.2818 10.7546 23.7455 12.2728 21.9364 12.6183C21.0545 12.791 20.0727 12.7455 19.0455 12.7092C16.6909 12.6183 14.0182 12.5183 12.3364 15.1637C9.87273 19.0546 13.1273 21.3819 15.5091 23.0819C16.2455 23.6092 16.9364 24.1001 17.4455 24.6001C18.7 25.8274 18.7727 27.7819 17.6727 30.4183L17.6 30.6001C16.9273 32.191 16.1727 34.0001 16.6364 35.8637C17.0273 37.4637 18.4273 38.8001 20.1273 39.191C20.4182 39.2546 20.6909 39.291 20.9636 39.291C22.4 39.291 23.5818 38.4364 24.5727 37.7183L24.8182 37.5364C25.1273 37.3183 25.4273 37.091 25.7364 36.8637C26.0545 36.6273 26.3636 36.4001 26.6727 36.1728C26.5091 37.2183 25.7636 38.2001 25.3636 38.6546C25.0636 39.0001 24.7455 39.3274 24.4273 39.6455C23.5727 40.5183 22.6909 41.4183 22.1455 42.6001C21.4636 44.0728 21.5364 45.5183 21.6182 46.9183C21.6455 47.3455 21.6545 47.7819 21.6636 48.2183H20.7273C20.4727 48.2183 20.2273 48.2546 20.0091 48.3183C16.1273 49.5001 16.1455 51.9183 16.1636 54.7183V55.391C16.1636 56.6546 17.2091 57.6819 18.4909 57.6819H36.6091H38.9818H41.3545C42.5546 57.6728 43.4091 57.391 43.9636 56.8092C44.8091 55.9183 44.7546 54.6183 44.6818 53.1092L44.6545 52.4364C44.6364 51.9546 44.4636 51.491 44.1636 51.1092L42.5636 49.1001C42.1182 48.5455 41.4545 48.2183 40.7273 48.2183H39.5727C39.6818 45.5274 39.7 43.3637 37.1636 41.1183C35.4818 39.6183 35.0364 38.291 34.9727 36.3001C35.0455 36.3546 35.1182 36.4092 35.2 36.4546C36.6 37.4546 38.0545 38.4819 39.7364 38.7546C41.2 39.0001 43.6 38.3637 44.2818 36.5637C44.4818 36.0274 44.5091 35.3546 44.3455 34.5183C44.2091 33.7728 43.9455 33.0092 43.7273 32.3364C43.6273 32.0364 43.5364 31.7637 43.4636 31.5183C43.3636 31.1637 43.2455 30.8183 43.1364 30.4728C42.8182 29.5001 42.5273 28.5728 42.4636 27.591C42.3818 26.2274 43.5727 25.1637 44.7273 24.1274C45.0546 23.8274 45.3818 23.5364 45.6636 23.2455C46.7273 22.191 49.2091 19.691 48.3727 16.8637ZM41.2455 50.1637L42.8455 52.1728C42.9273 52.2728 42.9636 52.391 42.9727 52.5092L43 53.2001C43.0545 54.3183 43.1 55.291 42.7455 55.6546C42.4818 55.9364 41.8455 56.0001 41.3636 56.0001C39.7818 56.0092 38.2 56.0001 36.6273 56.0001H18.5091C18.1636 56.0001 17.8727 55.7364 17.8727 55.4092V54.7183C17.8545 52.0092 17.8455 50.7637 20.5182 49.9546C20.5545 49.9455 20.6273 49.9273 20.7364 49.9273H40.7455C40.9273 49.9273 41.1182 50.0183 41.2455 50.1637ZM36.0455 42.4001C38.0091 44.1455 37.9909 45.6183 37.8818 48.2364H23.3455C23.3455 47.7637 23.3273 47.291 23.3 46.8455C23.2273 45.5455 23.1727 44.4273 23.6727 43.3364C24.1 42.4183 24.8364 41.6546 25.6273 40.8546C25.9727 40.5092 26.3091 40.1546 26.6273 39.791C27.9727 38.2455 28.5727 36.591 28.3273 35.1364C28.9182 34.8274 29.5273 34.591 30.1727 34.4728C31.2545 34.2819 32.2636 34.6364 33.2727 35.2001C33.2273 37.9455 33.4909 40.1273 36.0455 42.4001ZM44.4636 22.0728C44.2 22.3364 43.9 22.6092 43.6 22.8819C42.2909 24.0637 40.6545 25.5364 40.7818 27.7092C40.8545 28.9183 41.1909 29.9819 41.5273 31.0183C41.6364 31.3455 41.7364 31.6819 41.8364 32.0183C41.9091 32.2819 42.0091 32.5819 42.1182 32.9001C42.3273 33.5183 42.5636 34.2274 42.6818 34.8546C42.8 35.5001 42.7545 35.8274 42.7 35.9819C42.4 36.7728 40.9818 37.2546 40.0182 37.1001C38.7273 36.891 37.4909 36.0183 36.1909 35.091C34.3 33.7455 32.3455 32.3546 29.8818 32.791C27.8727 33.1455 26.2636 34.3455 24.7091 35.5001C24.4091 35.7183 24.1182 35.9455 23.8182 36.1546L23.5636 36.3364C22.5364 37.0819 21.5636 37.7728 20.5091 37.5273C19.4364 37.2728 18.5273 36.4183 18.2818 35.4455C17.9545 34.1273 18.5727 32.6546 19.1636 31.2364L19.2364 31.0546C20.9727 26.891 19.8636 24.5819 18.6273 23.3728C18.0273 22.7819 17.2818 22.2546 16.4909 21.691C13.8091 19.7728 12.2364 18.4819 13.7636 16.0637C14.6818 14.6092 16.0545 14.3637 17.6727 14.3637C18.0909 14.3637 18.5273 14.3819 18.9636 14.4001C20.0455 14.4455 21.1636 14.4819 22.2364 14.2819C25.2182 13.7183 25.9455 11.0819 26.5909 8.75462C26.9182 7.5728 27.2273 6.44553 27.7909 5.66371C28.3909 4.82735 29.3 3.86371 30.2364 4.01826C31.3727 4.20917 32.6364 5.99099 33.3091 8.33644C33.8364 10.1819 34.6364 12.9728 37.0364 14.3092C38.4455 15.091 40.1273 15.0728 41.7455 15.0546C44.4909 15.0183 46.0727 15.1092 46.7364 17.3455C47.2273 18.9819 45.8636 20.6546 44.4636 22.0728Z" fill="white"/>
<path d="M19 19.591C17.4909 18.1092 16.6455 16.5455 16.3182 16.6728C16.1728 16.7364 16.1909 17.2274 16.4637 17.9455C16.7364 18.6637 17.3 19.6001 18.1364 20.4455C18.9818 21.2819 19.9182 21.8455 20.6364 22.1092C21.3637 22.3819 21.8546 22.4001 21.9091 22.2546C22.0455 21.9364 20.4818 21.1001 19 19.591Z" fill="white"/>
<path d="M31.6635 40.8637C31.4908 41.1637 32.3726 41.9819 33.0817 43.2001C33.8181 44.4001 34.1181 45.5728 34.4635 45.5546C34.6272 45.5455 34.7635 45.2092 34.7545 44.6455C34.7454 44.091 34.5635 43.3183 34.1181 42.5819C33.6817 41.8455 33.0908 41.3092 32.5999 41.0364C32.1181 40.7728 31.7545 40.7273 31.6635 40.8637Z" fill="white"/>
<path d="M20.2182 52.6728C19.7728 53.2364 19.5637 53.8819 19.5364 54.3455C19.5091 54.8182 19.6364 55.1091 19.8 55.1273C20.1455 55.1546 20.491 54.2728 21.1728 53.4182C21.8273 52.5455 22.6091 52 22.5 51.6728C22.4455 51.5182 22.1273 51.4637 21.6819 51.6091C21.2364 51.7455 20.6637 52.1091 20.2182 52.6728Z" fill="white"/>
</svg>
