<svg width="120" height="120" viewBox="0 0 120 120" fill="none" xmlns="http://www.w3.org/2000/svg">
<g clip-path="url(#clip0_1058_3026)">
<path d="M60 120C93.1371 120 120 93.1371 120 60C120 26.8629 93.1371 0 60 0C26.8629 0 0 26.8629 0 60C0 93.1371 26.8629 120 60 120Z" fill="#FFCD00"/>
<path fill-rule="evenodd" clip-rule="evenodd" d="M60 120C52.0435 120 44.4129 116.839 38.7868 111.213C33.1607 105.587 30 97.9565 30 90C30 82.0435 33.1607 74.4129 38.7868 68.7868C44.4129 63.1607 52.0435 60 60 60H120C120 75.913 113.679 91.1742 102.426 102.426C91.1742 113.679 75.913 120 60 120Z" fill="#FFB400"/>
<path fill-rule="evenodd" clip-rule="evenodd" d="M60 0C67.9565 0 75.5871 3.16071 81.2132 8.7868C86.8393 14.4129 90 22.0435 90 30C90 37.9565 86.8393 45.5871 81.2132 51.2132C75.5871 56.8393 67.9565 60 60 60H0C0 44.087 6.32141 28.8258 17.5736 17.5736C28.8258 6.32141 44.087 0 60 0V0Z" fill="#FFEB00"/>
<path fill-rule="evenodd" clip-rule="evenodd" d="M22.5 60.0037L97.5 60C97.5059 65.3208 96.3767 70.5817 94.1878 75.4314C91.9988 80.2812 88.8005 84.6081 84.8062 88.1235H35.1921C34.6072 87.6077 34.0373 87.0724 33.4824 86.5176C30.0006 83.0357 27.2386 78.9022 25.3542 74.3529C23.4698 69.8037 22.5 64.9278 22.5 60.0037Z" fill="#46321E"/>
<path fill-rule="evenodd" clip-rule="evenodd" d="M35.1921 88.1235C37.9413 84.0776 41.6393 80.7662 45.963 78.4786C50.2867 76.191 55.1047 74.9967 59.9963 75H60.0038C64.8952 74.9967 69.713 76.1909 74.0366 78.4783C78.3602 80.7657 82.0581 84.0768 84.8074 88.1224C77.9635 94.1771 69.1378 97.5134 60.0001 97.5H59.9963C50.8622 97.5 42.0421 94.1659 35.1921 88.1235Z" fill="#C8005A"/>
<path d="M103.532 41.5163L97.5 60.0825L81.7068 48.6094H62.1843L68.2181 30.0412L62.1843 11.4769H81.7068L97.5 0L103.532 18.5681L119.325 30.0412L103.532 41.5163Z" fill="#FF961E"/>
<path d="M16.4682 41.5163L22.5 60.0825L38.2932 48.6094H57.8175L51.7819 30.0412L57.8175 11.4769H38.2932L22.5 0L16.4682 18.5681L0.675049 30.0412L16.4682 41.5163Z" fill="#FF961E"/>
</g>
<defs>
<clipPath id="clip0_1058_3026">
<rect width="120" height="120" fill="white"/>
</clipPath>
</defs>
</svg>
